<?xml version="1.0" encoding="utf-8"?>
<!-- Generator: Adobe Illustrator 23.0.1, SVG Export Plug-In . SVG Version: 6.00 Build 0)  -->
<svg version="1.1" id="Layer_1" xmlns="http://www.w3.org/2000/svg" xmlns:xlink="http://www.w3.org/1999/xlink" x="0px" y="0px"
	 viewBox="0 0 277 160.3" style="enable-background:new 0 0 277 160.3;" xml:space="preserve">
<path d="M135.5,82.3c-41.1,0-81.9,0-123.3,0c-0.5,16.8,2.6,32.3,12.5,45.9c13.9,19.1,37.2,25.9,62.7,18.8
	c17.7-4.9,28-16.9,33.6-33.8c2.6-7.9,4.9-9.1,13.4-7.1c-3.2,17.3-10.5,32-25.2,42.4C77.3,171,12.6,164,1.9,103.2
	c-3.7-20.8-2.1-40.6,5.4-59.7c9.8-24.8,28.7-40,55.4-43c27.2-3.1,48.3,8.2,63,31.2C133.7,44.2,138,67.2,135.5,82.3z M124.4,71.6
	c-1.2-23-8.2-42.9-29.1-54.3C75.2,6.4,54.9,8.8,36.5,22c-16.7,12-22.9,29.6-24.1,49.7C50.1,71.6,87,71.6,124.4,71.6z"/>
<path d="M272.1,1.3c-8.1,10.7-16,21.2-24,31.7c-9.3,12.2-18.7,24.3-28,36.4c-4.3,5.6-4.4,7.7,0,13.4c18,23.9,36,47.8,54,71.7
	c1.1,1.5,2.1,3.1,3.3,4.6c-10,3-16.9-0.7-22.6-8.7c-14.4-20.3-29.1-40.3-43.7-60.5c-1.1-1.5-2.3-3-3.8-4.8
	c-12,16.2-23.8,32.1-35.5,48c-4.9,6.6-9.6,13.2-14.6,19.7c-5.4,6.9-11.3,8.7-19.6,6c20.5-27.6,41-55,61.8-82.9
	c-19.1-24.8-38.2-49.7-57.4-74.8c10.2-3,16.3-0.9,22.8,8c13.5,18.2,26.9,36.4,40.3,54.5c0.6,0.8,1.3,1.6,2.4,3
	c1.5-1.9,2.9-3.6,4.1-5.3c12.9-17.3,25.8-34.5,38.8-51.8C257.1,0.7,261.7-1.1,272.1,1.3z"/>
</svg>
