<?xml version="1.0" encoding="utf-8"?>
<!-- Generator: Adobe Illustrator 23.0.1, SVG Export Plug-In . SVG Version: 6.00 Build 0)  -->
<svg version="1.1" id="Lager_1" xmlns="http://www.w3.org/2000/svg" xmlns:xlink="http://www.w3.org/1999/xlink" x="0px" y="0px"
	 viewBox="0 0 105.6 105.6" style="enable-background:new 0 0 105.6 105.6;" xml:space="preserve">
<style type="text/css">
	.st0{fill:#F0DB4F;}
	.st1{fill:#323330;}
</style>
<g>
	<g>
		<g>
			<circle className="st0" cx="52.8" cy="52.8" r="52.8"/>
		</g>
	</g>
	<g id="Layer_1_1_">
		<g>
			<g>
				<path className="st1" d="M36.4,32.3h9.2v25.9c0,11.6-5.6,15.7-14.5,15.7c-2.2,0-5-0.3-6.8-1l1.1-7.5c1.3,0.4,3,0.7,4.8,0.7
					c3.9,0,6.3-1.8,6.3-8L36.4,32.3L36.4,32.3z"/>
				<path className="st1" d="M53.7,63.8c2.4,1.3,6.3,2.5,10.2,2.5c4.2,0,6.4-1.8,6.4-4.5c0-2.5-1.9-4-6.9-5.7
					c-6.8-2.4-11.3-6.2-11.3-12.2c0-6.9,5.9-12.1,15.5-12.1c4.6,0,8,1,10.5,2.1l-2,7.3c-1.6-0.7-4.5-1.9-8.4-1.9
					c-4,0-5.9,1.9-5.9,3.9c0,2.6,2.2,3.8,7.6,5.8C76.6,51.6,80,55.4,80,61.2c0,6.9-5.2,12.7-16.5,12.7c-4.6,0-9.3-1.3-11.6-2.5
					L53.7,63.8z"/>
			</g>
		</g>
	</g>
</g>
</svg>
