<?xml version="1.0" encoding="utf-8"?>
<!-- Generator: Adobe Illustrator 23.0.1, SVG Export Plug-In . SVG Version: 6.00 Build 0)  -->
<svg version="1.1" id="Lager_1" xmlns="http://www.w3.org/2000/svg" xmlns:xlink="http://www.w3.org/1999/xlink" x="0px" y="0px"
	 viewBox="0 0 124 129" style="enable-background:new 0 0 124 129;" xml:space="preserve">
<style type="text/css">
	.st0{fill:#F0DB4F;}
	.st1{fill:#323330;}
	.st2{fill:none;}
	.st3{fill:#FFFFFF;}
</style>
<g>
	<g>
		<g>
			<circle class="st0" cx="59.9" cy="52.8" r="52.8"/>
		</g>
	</g>
	<g id="Layer_1_1_">
		<g>
			<g>
				<path class="st1" d="M43.5,32.3h9.2v25.9c0,11.6-5.6,15.7-14.5,15.7c-2.2,0-5-0.3-6.8-1l1.1-7.5c1.3,0.4,3,0.7,4.8,0.7
					c3.9,0,6.3-1.8,6.3-8L43.5,32.3L43.5,32.3z"/>
				<path class="st1" d="M60.8,63.8c2.4,1.3,6.3,2.5,10.2,2.5c4.2,0,6.4-1.8,6.4-4.5c0-2.5-1.9-4-6.9-5.7
					c-6.8-2.4-11.3-6.2-11.3-12.2c0-6.9,5.9-12.1,15.5-12.1c4.6,0,8,1,10.5,2.1l-2,7.3c-1.6-0.7-4.5-1.9-8.4-1.9
					c-4,0-5.9,1.9-5.9,3.9c0,2.6,2.2,3.8,7.6,5.8c7.2,2.6,10.6,6.4,10.6,12.2c0,6.9-5.2,12.7-16.5,12.7c-4.6,0-9.3-1.3-11.6-2.5
					L60.8,63.8z"/>
			</g>
		</g>
	</g>
</g>
<rect x="22.2" y="112.5" class="st2" width="100" height="16.5"/>
<g>
	<path class="st3" d="M7.3,118.3c0,1.3-0.4,2.3-1.2,2.9s-1.8,1-3.1,1c-0.3,0-0.7,0-1.3-0.1s-1-0.1-1.3-0.2v-1.8h0.1
		c0.3,0.1,0.6,0.2,1,0.3s0.8,0.1,1.2,0.1c0.6,0,1.1-0.1,1.4-0.2s0.6-0.3,0.8-0.6c0.2-0.3,0.3-0.6,0.3-1s0.1-0.8,0.1-1.3v-8.5H2.3
		v-1.5h5V118.3z"/>
	<path class="st3" d="M22.4,122.1h-2.1l-1.4-4.1h-6.3l-1.4,4.1h-2l5.3-14.5h2.6L22.4,122.1z M18.3,116.4l-2.5-7.1l-2.6,7.1H18.3z"/>
	<path class="st3" d="M35.5,107.6l-5.3,14.5h-2.6l-5.3-14.5h2.1l4.6,12.8l4.6-12.8H35.5z"/>
	<path class="st3" d="M48.6,122.1h-2.1l-1.4-4.1h-6.3l-1.4,4.1h-2l5.3-14.5h2.6L48.6,122.1z M44.5,116.4l-2.5-7.1l-2.6,7.1H44.5z"/>
	<path class="st3" d="M61.3,118c0,0.6-0.1,1.1-0.4,1.7s-0.6,1-1.1,1.4c-0.5,0.4-1.1,0.7-1.8,1s-1.5,0.4-2.5,0.4c-1,0-2-0.1-2.8-0.3
		s-1.7-0.5-2.6-0.9v-2.4h0.1c0.7,0.6,1.6,1.1,2.5,1.4s1.9,0.5,2.7,0.5c1.2,0,2.1-0.2,2.8-0.7s1-1,1-1.8c0-0.6-0.2-1.1-0.5-1.4
		s-0.8-0.5-1.4-0.7c-0.5-0.1-1-0.2-1.6-0.3s-1.2-0.2-1.8-0.3c-1.3-0.3-2.2-0.7-2.9-1.4s-0.9-1.5-0.9-2.6c0-1.2,0.5-2.2,1.5-3
		s2.3-1.2,3.9-1.2c1,0,2,0.1,2.8,0.3s1.6,0.4,2.3,0.7v2.3h-0.1c-0.6-0.5-1.3-0.9-2.2-1.2s-1.8-0.5-2.8-0.5c-1,0-1.9,0.2-2.5,0.6
		s-0.9,1-0.9,1.7c0,0.6,0.2,1.1,0.5,1.4s0.9,0.6,1.7,0.8c0.4,0.1,1,0.2,1.8,0.3s1.4,0.3,2,0.4c1.1,0.3,1.9,0.7,2.4,1.3
		S61.3,116.9,61.3,118z"/>
	<path class="st3" d="M75.6,121.1c-0.4,0.2-0.7,0.3-1,0.4s-0.7,0.3-1.1,0.4c-0.4,0.1-0.8,0.2-1.3,0.3s-1,0.1-1.5,0.1
		c-1.1,0-2-0.1-2.9-0.4s-1.6-0.8-2.3-1.4c-0.6-0.6-1.1-1.4-1.5-2.4s-0.5-2.1-0.5-3.3c0-1.2,0.2-2.3,0.5-3.2c0.3-0.9,0.8-1.7,1.5-2.4
		c0.6-0.6,1.4-1.1,2.2-1.4s1.8-0.5,2.9-0.5c0.8,0,1.6,0.1,2.3,0.3s1.6,0.5,2.6,1v2.3h-0.1c-0.8-0.7-1.6-1.2-2.4-1.5
		s-1.6-0.5-2.5-0.5c-0.7,0-1.4,0.1-2,0.4s-1.1,0.6-1.6,1.1c-0.4,0.5-0.8,1.1-1,1.9s-0.4,1.6-0.4,2.6c0,1,0.1,1.9,0.4,2.6
		s0.6,1.3,1.1,1.8c0.5,0.5,1,0.8,1.6,1.1s1.3,0.3,1.9,0.3c0.9,0,1.8-0.2,2.6-0.5s1.6-0.8,2.3-1.4h0.1V121.1z"/>
	<path class="st3" d="M90.4,122.1h-2.5l-4.9-5.8h-2.7v5.8h-1.9v-14.5h4.1c0.9,0,1.6,0.1,2.2,0.2s1.1,0.3,1.6,0.6
		c0.5,0.3,0.9,0.8,1.2,1.3s0.4,1.1,0.4,1.9c0,1-0.3,1.9-0.8,2.6s-1.3,1.2-2.2,1.6L90.4,122.1z M85.8,111.7c0-0.4-0.1-0.8-0.2-1.1
		s-0.4-0.6-0.7-0.8c-0.3-0.2-0.6-0.3-1-0.4s-0.8-0.1-1.4-0.1h-2.3v5.5h2c0.6,0,1.1-0.1,1.6-0.2s0.8-0.3,1.2-0.6
		c0.3-0.3,0.5-0.6,0.6-0.9S85.8,112.2,85.8,111.7z"/>
	<path class="st3" d="M97.4,122.1h-5.7v-1.5h1.9v-11.6h-1.9v-1.5h5.7v1.5h-1.9v11.6h1.9V122.1z"/>
	<path class="st3" d="M110.2,112c0,0.6-0.1,1.2-0.3,1.8s-0.5,1-0.9,1.4c-0.5,0.5-1.1,0.9-1.8,1.1s-1.5,0.4-2.6,0.4h-1.9v5.4h-1.9
		v-14.5h3.9c0.9,0,1.6,0.1,2.2,0.2s1.1,0.4,1.6,0.7c0.6,0.4,1,0.8,1.3,1.4S110.2,111.1,110.2,112z M108.2,112c0-0.5-0.1-0.9-0.3-1.3
		s-0.4-0.7-0.8-0.9c-0.3-0.2-0.7-0.3-1.1-0.4s-0.9-0.1-1.5-0.1h-1.9v5.8h1.6c0.8,0,1.4-0.1,1.9-0.2s0.9-0.4,1.2-0.7
		c0.3-0.3,0.5-0.6,0.6-1S108.2,112.5,108.2,112z"/>
	<path class="st3" d="M123.1,109.3h-5.2v12.8H116v-12.8h-5.2v-1.7h12.3V109.3z"/>
</g>
</svg>
