<?xml version="1.0" encoding="utf-8"?>
<!-- Generator: Adobe Illustrator 23.0.1, SVG Export Plug-In . SVG Version: 6.00 Build 0)  -->
<svg version="1.1" id="Layer_1" xmlns="http://www.w3.org/2000/svg" xmlns:xlink="http://www.w3.org/1999/xlink" x="0px" y="0px"
	 viewBox="0 0 206.6 124" style="enable-background:new 0 0 206.6 124;" xml:space="preserve">
<title>next-black</title>
<desc>Created with Sketch.</desc>
<g id="Page-1">
	<g id="Black-Next.js" transform="translate(-247.000000, -138.000000)">
		<g id="next-black" transform="translate(247.000000, 138.000000)">
			<g>
				<path id="EXT" d="M48.7,32.3h39v3.1H52.3v23.2h33.3v3.1H52.3v25.5h35.8v3.1H48.7V32.3z M91.2,32.3h4.1l18.3,25.5l18.7-25.5
					L157.9,0L116,60.5l21.6,29.8h-4.3l-19.6-27.1L93.9,90.2h-4.2l21.8-29.8L91.2,32.3z M139.2,35.4v-3.1h44.4v3.1h-20.5v54.8h-3.6
					V35.4H139.2z"/>
				<polygon id="Type-something" points="0,32.3 4.5,32.3 66,124 40.6,90.2 3.7,36.7 3.6,90.2 0,90.2 				"/>
			</g>
			<path d="M183.2,86.2c0.7,0,1.3-0.6,1.3-1.3c0-0.7-0.5-1.3-1.3-1.3c-0.7,0-1.3,0.6-1.3,1.3C181.9,85.7,182.5,86.2,183.2,86.2z
				 M186.7,82.8c0,2.1,1.6,3.5,3.8,3.5c2.4,0,3.9-1.4,3.9-4v-8.8h-1.9v8.8c0,1.4-0.7,2.1-1.9,2.1c-1.1,0-1.9-0.7-1.9-1.7H186.7z
				 M196.9,82.7c0.1,2.2,2,3.7,4.8,3.7c3,0,4.8-1.5,4.8-3.9c0-1.9-1.1-2.9-3.6-3.5l-1.4-0.3c-1.6-0.4-2.3-0.9-2.3-1.8
				c0-1.1,1-1.9,2.6-1.9c1.5,0,2.5,0.7,2.6,1.9h1.9c-0.1-2.1-2-3.6-4.5-3.6c-2.7,0-4.6,1.5-4.6,3.7c0,1.8,1,2.9,3.3,3.5l1.6,0.4
				c1.7,0.4,2.4,1,2.4,1.9c0,1.1-1.1,1.9-2.7,1.9c-1.7,0-2.8-0.8-3-1.9H196.9z"/>
		</g>
	</g>
</g>
</svg>
