<?xml version="1.0" encoding="utf-8"?>
<!-- Generator: Adobe Illustrator 23.0.1, SVG Export Plug-In . SVG Version: 6.00 Build 0)  -->
<svg version="1.1" id="Layer_1" xmlns="http://www.w3.org/2000/svg" xmlns:xlink="http://www.w3.org/1999/xlink" x="0px" y="0px"
	 viewBox="0 0 1280 783" style="enable-background:new 0 0 1280 783;" xml:space="preserve">
<style type="text/css">
	.st0{fill:#333333;}
	.st1{fill:#699F64;}
	.st2{fill:#488B44;}
	.st3{fill:#3E863D;}
	.st4{fill:#639B58;}
	.st5{fill:#74AC63;}
	.st6{fill:#6FA760;}
	.st7{fill:#69A15C;}
	.st8{fill:#77B261;}
	.st9{fill:#6CBD49;}
	.st10{fill:#55964D;}
	.st11{fill:#75B659;}
	.st12{fill:#70BA52;}
	.st13{fill:#579E4A;}
	.st14{fill:#FEFEFE;}
</style>
<path class="st0" d="M863,0c22.6,12.7,44.9,25.8,67.8,37.9c10.1,5.3,14.1,12.2,14.1,23.7c-0.3,113.6-0.3,227.3-0.1,340.9
	c0,9.2-3.3,15.2-11.3,19.8c-38.6,22-77,44.2-115.4,66.6c-7.4,4.3-13.9,4.6-21.4,0.2c-38.9-22.8-78-45.3-117.1-67.7
	c-6.8-3.9-9.8-9.1-9.8-17c0.2-45.3,0.2-90.7,0-136c0-7.9,3-13.1,9.8-17c39.5-22.6,79-45.4,118.4-68.3c6.3-3.6,12.1-3.7,18.3,0
	c8.7,5.2,17.6,10.2,26.4,15.2c7,4,10.3,2.1,10.3-5.8c0-60.7,0-121.3-0.1-182c0-4.6,1.1-8.1,5-10.5C859.7,0,861.3,0,863,0z
	 M761.1,336.1c0,7.2,0.2,14.3-0.1,21.5c-0.2,3.9,1.4,6,4.7,7.9c12.5,7,24.8,14.1,37.2,21.4c2.9,1.7,5.3,1.8,8.3,0
	c12.5-7.4,25-14.6,37.6-21.7c3-1.7,4.3-3.7,4.2-7.1c-0.2-14.5-0.1-29,0-43.5c0-3.2-0.9-5.2-3.8-6.9c-12.9-7.3-25.7-14.7-38.4-22.2
	c-2.6-1.5-4.7-1.6-7.3,0c-12.7,7.5-25.6,14.9-38.4,22.2c-2.9,1.6-3.9,3.7-3.8,6.9C761.2,321.8,761.1,329,761.1,336.1z"/>
<path class="st0" d="M0,258c2.4-5.4,6.7-8.7,11.7-11.5c38.4-22,76.8-44,115-66.2c7.3-4.2,13.7-4.3,21,0c39,22.7,78,45.1,117.2,67.5
	c6.9,3.9,9.8,9.3,9.8,17.1c-0.2,61.3-0.3,122.7-0.4,184c0,0.8,0,1.7,0,2.5c-0.4,6.8-5.6,9.8-11.5,6.5c-24-13.6-48-27.4-71.9-41.1
	c-5.6-3.2-7.8-8.3-7.8-14.6c0.1-28.2-0.1-56.3,0.1-84.5c0.1-7.7-2.8-13-9.6-16.6c-9.3-5.1-18.5-10.5-27.7-15.9
	c-5.9-3.5-11.5-3.3-17.4,0.1c-8.7,5.2-17.4,10.5-26.4,15.1c-7.8,4-10.7,9.9-10.6,18.6c0.3,27,0,54,0.2,81c0.1,8.6-3,14.3-10.7,18.6
	c-22.8,12.7-45.4,25.9-68,38.8c-5.9,3.4-9.3,2.4-12.1-3.2c0-29.4,0-58.8,0-88.2c0-1.3,0.3-2.7-0.9-3.7C0,327.3,0,292.7,0,258z"/>
<path class="st1" d="M625,783c-14.1-8.4-28.3-16.7-42.4-25.1c-1.5-0.9-3.9-1.5-3.8-3.6c0.1-2.2,2.7-2.1,4.3-2.7
	c4.2-1.6,8.5-3.2,12.2-5.7c2.9-1.9,5.3-1.7,8.2,0.1c8.2,5.1,16.6,9.8,24.8,14.9c2.9,1.8,5.4,1.7,8.3,0c37-21.5,74.1-42.8,111.2-64.2
	c2.8-1.6,3.8-3.7,3.8-6.9c-0.1-42.7-0.1-85.3,0-128c0-3.4-1.2-5.5-4.1-7.2c-37.2-21.4-74.4-42.9-111.6-64.4c-2.4-1.4-4.5-1.4-6.9,0
	c-37.3,21.6-74.7,43.2-112,64.7c-2.6,1.5-3.7,3.5-3.7,6.4c0,43,0,86,0,129c0,2.8,0.9,4.7,3.4,6.1c9.9,5.6,19.6,11.4,29.5,16.9
	c5.5,3,11.3,4.9,17.7,2.9c6-1.9,9.8-6.4,10.4-12.7c0.2-2,0.1-4,0.1-6c0-40.8,0-81.7,0-122.5c0-7.6,0.3-8,7.8-7.9
	c15.3,0.1,13.7-1.8,13.7,13.5c0,39.7,0,79.3,0,119c0,5.2-0.4,10.3-1.7,15.3c-3.7,13.9-14.1,22-28.5,23.2
	c-11.8,0.9-22.4-2.5-32.4-8.1c-8.9-5-17.5-10.2-26.4-15.1c-9.5-5.2-14.4-13.1-14.4-23.9c0-43.3,0-86.7,0-130
	c0-11,4.9-18.8,14.5-24.3c37.4-21.4,74.7-43,112.1-64.6c8.8-5.1,17.7-5.2,26.6-0.1c37.9,21.9,75.8,43.8,113.7,65.7
	c8.7,5,12.8,12.6,12.8,22.7c-0.1,43.7-0.1,87.3,0,131c0,10.1-4.2,17.7-12.9,22.7c-38,22-76.1,44-114.2,65.9c-2,1.1-4.1,2.1-6.2,3.1
	C634.3,783,629.7,783,625,783z"/>
<path class="st2" d="M0,362c1.1,1,0.9,2.4,0.9,3.7c0,29.4,0,58.8,0,88.2c-0.3,0-0.6,0-0.9,0.1C0,423.3,0,392.7,0,362z"/>
<path class="st1" d="M1280,301l-0.4,0c0,0-0.4,0-0.4,0c0-13.3,0-26.7,0-40c0.3-0.1,0.6-0.1,0.8,0C1280,274.3,1280,287.7,1280,301z"
	/>
<path class="st0" d="M1279.2,261c0,13.3,0,26.7,0,40c-0.7,4.7-3.5,7.8-7.4,10.1c-23.9,13.9-47.7,27.8-71.6,41.6
	c-7,4-12.3,0.9-12.4-7.1c-0.1-10-0.2-20,0-30c0.2-5.5-1.9-8.9-6.8-11.6c-11.2-6.1-22.3-12.6-33.3-19.1c-4-2.4-7.5-2.5-11.6,0
	c-11.3,6.7-22.7,13.3-34.1,19.7c-4.3,2.4-6,5.6-6,10.5c0.2,13,0.2,26,0,39c-0.1,4.9,1.9,7.9,6.1,10.4
	c38.3,21.8,76.5,43.8,114.7,65.7c1.2,0.7,2.3,1.3,3.5,2c3.3,1.8,6.5,3.7,6.5,8.1c0,4.3-3.2,6.2-6.5,8.1c-15,8.3-29.9,16.6-44.9,24.9
	c-8,4.4-16,8.8-24,13.4c-6.2,3.6-12,3.6-18.3,0c-39.4-22.6-78.8-45-118.3-67.4c-6.1-3.5-9.1-8.3-9-15.4c0.1-46.1,0.1-92.3,0-138.4
	c0-6.9,2.8-11.7,8.7-15.1c39.8-22.9,79.5-45.8,119.2-68.8c6.4-3.7,12.3-3.7,18.7,0c39.2,22.9,78.5,45.6,117.8,68.4
	C1274.7,252.4,1278.4,255.5,1279.2,261z"/>
<path class="st1" d="M664.3,564.1c10.7-0.3,21.3,0.8,31.4,4.6c15.3,5.7,23.1,17.2,25.2,33c0.6,4.2-0.8,6.5-5.3,6.2
	c-0.8,0-1.7-0.1-2.5,0c-8.2,1.1-14.3-0.1-16.3-10c-1.3-6.1-6.8-9.8-12.9-11.4c-12.8-3.4-25.7-3.6-38.5-0.2
	c-7.5,2-11.2,6.5-11.5,12.7c-0.3,6.2,1.3,8.9,7.2,10.9c8.4,2.9,17.2,3.8,25.9,5.2c11.8,1.8,23.7,3.1,35.2,6.7
	c13.4,4.3,22.4,12.2,23.3,27.1c0.9,14.5-4.4,26-17,33.8c-10.2,6.3-21.7,8.4-33.4,8.9c-14.5,0.6-28.9-0.4-42.8-5.6
	c-15.4-5.9-24.9-18.8-25.4-34.4c-0.1-4.4,1.4-6.3,5.7-5.8c0.7,0.1,1.3,0,2,0c4,0.1,8.4-0.8,11.9,0.6c3.9,1.5,2.5,6.8,4,10.2
	c2.8,6.6,7.7,10.5,14.3,12.1c14.8,3.6,29.7,3.5,44.5,0.2c2.9-0.7,5.7-2,8-3.9c8.7-7,7-19.2-3.4-23c-11.2-4.1-23.1-4.7-34.8-6.1
	c-9.9-1.2-19.7-2.8-29.1-6.4c-25.5-9.5-23.1-42.3-7.7-54.2c9.5-7.3,20.4-10.2,32-11.3C657.6,563.8,661,564.1,664.3,564.1z"/>
<path class="st3" d="M473.9,489.8c-3.8,0.6-7.1-0.7-10.4-2.6c-39.8-23-79.6-46-119.4-69c-2.1-1.2-4.4-2.3-5.4-4.9
	c15.9-27,32-54,47.3-81.4c0.3-0.3,0.7-0.6,1-0.9c1,1.5,1.9,3.1,2.9,4.6c3.3,5,5,10.8,9,15.4c5.8,12,12.1,23.7,19.1,35
	c4.9,9.9,9.9,19.8,16,29c6.7,13.7,14.1,27,22,40c0.9,3.1,2.7,5.7,4.1,8.5C464.5,472.4,470.4,480.5,473.9,489.8z"/>
<path class="st4" d="M538,454.1c-3.6,3.1-8,4.6-12,6.9c-1.9-1.8-1-4.1-1-6.2c0-59.2,0-118.3-0.1-177.5c0-2.1-0.2-4.3-0.4-6.4
	c-0.8-10.8-7.2-19.2-12.3-27.9c-3.6-6.1-6.3-12.8-11.2-18.1c-6.5-13.2-13.9-25.8-22-38c0.3-2.6-4-3.9-2-7c3.7,0.8,6.5,3.1,9.6,4.9
	c14.2,8.2,28.3,16.4,42.5,24.7c-0.3,2.5,1.5,4,2.7,5.7c16.4,22.5,32.8,45,49.3,67.4c1.4,1.9,2.7,4.3,5.7,4.3c-5,9.3-10,18.7-14.9,28
	c-1.6,1.3-2,3.3-3,5c-1.7,0-2.7-1.1-3.6-2.3c-4.8-6.6-9.6-13.1-14.4-19.7c-4.1-5.6-8.2-11.2-12.4-16.8c-0.6-0.8-1.5-2.3-2.8-1.6
	c-1.5,0.7-0.6,2.1,0,3c1.4,2.3,1.2,4.8,1.2,7.3c0,41.1-0.1,82.3,0.1,123.4C537.1,426.9,536,440.5,538,454.1z"/>
<path class="st5" d="M477,180c-2,3.1,2.3,4.4,2,7c-2.8,4.2,0.2,8.3,0.2,12.5c-0.2,96.2-0.1,192.4-0.1,288.6
	c-1.5,1.2-3.1,2.1-5.1,1.8c-3.6-9.3-9.4-17.5-14-26.3c-1.4-2.8-3.3-5.4-4.1-8.5c2.7-2.1,2.1-5.1,2.1-7.8c0-57.6,0-115.2,0-172.8
	c0-26.8,0-53.6,0-80.4c0-2.8,0.3-5.8-2.8-7.4c5.9-3.3,11.1-8.4,18.7-7.6C475,179.1,476.2,179,477,180z"/>
<path class="st6" d="M479,488.1c0-96.2-0.1-192.4,0.1-288.6c0-4.2-2.9-8.4-0.2-12.5c8.1,12.2,15.5,24.9,22,38c-1.5,1.3-1,3.1-1,4.7
	c0,79.4,0,158.7,0,238.1c0,2.4,0,4.7,2.1,6.3c-0.7,2.7-3.4,3-5.3,4.1C490.9,481.5,485.3,485.4,479,488.1z"/>
<path class="st7" d="M502.1,474.1c-2.1-1.6-2.1-4-2.1-6.3c0-79.4,0-158.7,0-238.1c0-1.6-0.6-3.4,1-4.7c5,5.2,7.6,12,11.2,18.1
	c5.2,8.8,11.6,17.1,12.3,27.9c0.1,2.1,0.4,4.3,0.4,6.4c0,59.2,0,118.3,0.1,177.5c0,2.1-0.9,4.4,1,6.2
	C518.3,465.7,510.9,471.2,502.1,474.1z"/>
<path class="st8" d="M455.2,186.6c3.1,1.7,2.8,4.6,2.8,7.4c0,26.8,0,53.6,0,80.4c0,57.6,0,115.2,0,172.8c0,2.8,0.6,5.7-2.1,7.8
	c-7.9-13-15.3-26.4-22-40c2.8-0.4,2.1-2.6,2.1-4.3c0-71,0-141.9,0-212.9C442.1,193.6,448.7,190.1,455.2,186.6z"/>
<path class="st9" d="M398.9,351.1c-4-4.6-5.7-10.4-9-15.4c-1-1.5-1.9-3.1-2.9-4.6c-9.5-17.5-19.2-34.8-28.5-52.4
	c-4.9-9.2-10.6-18-14.5-27.7c18.3-11.4,37.1-21.8,55.9-32.5c0.4,1.9,1.1,3.9,1.1,5.8c0.1,41,0,81.9,0,122.9
	C401,348.9,401.3,350.7,398.9,351.1z"/>
<path class="st10" d="M538,454.1c-2-13.6-0.9-27.2-1-40.8c-0.2-41.1-0.1-82.3-0.1-123.4c0-2.5,0.2-5-1.2-7.3c-0.6-0.9-1.5-2.3,0-3
	c1.3-0.6,2.1,0.8,2.8,1.6c4.2,5.6,8.3,11.2,12.4,16.8c4.8,6.5,9.6,13.1,14.4,19.7c0.9,1.2,1.9,2.3,3.6,2.3c-0.8,1.4-2,2.8-2.5,4.3
	c-1.2,3.6-4.6,5.9-4.6,10.2c0.2,33.2,0.1,66.3,0.1,99.5c0,2-0.3,4.1,2.1,5.1c-7,4.5-14.1,8.9-21.7,12.3
	C540.8,452,539.5,453.2,538,454.1z"/>
<path class="st11" d="M435.9,197.9c0,71,0,141.9,0,212.9c0,1.7,0.7,3.9-2.1,4.3c-6.1-9.2-11-19.1-16-29c1.7-1.4,1-3.4,1-5.2
	c0.1-10.3,0-20.6,0-31c0-47.4-0.1-94.9-0.1-142.3C424.4,204.1,429.9,200.5,435.9,197.9z"/>
<path class="st12" d="M418.9,207.6c0,47.4,0.1,94.9,0.1,142.3c0,10.3,0,20.6,0,31c0,1.7,0.7,3.7-1,5.2c-7-11.3-13.3-23-19.1-35
	c2.4-0.3,2.1-2.1,2.1-3.8c0-41,0-81.9,0-122.9c0-1.9-0.7-3.9-1.1-5.8c5.6-3.3,10.9-7.1,16.9-9.6c0.4-0.3,0.8-0.5,1.2-0.8
	C418.3,208,418.6,207.8,418.9,207.6z"/>
<path class="st13" d="M386,332c-15.2,27.4-31.3,54.4-47.3,81.4c-2.1-2.2-2.9-4.8-2.9-7.7c0-32.2,0.1-64.5,0.1-96.7
	c2.3-0.2,4.1,1.1,6,2C356.7,318,371.4,325,386,332z"/>
<path class="st2" d="M564.1,439c-2.4-1-2.1-3.1-2.1-5.1c0-33.2,0.1-66.3-0.1-99.5c0-4.3,3.4-6.6,4.6-10.2c0.5-1.5,1.6-2.9,2.5-4.3
	c1-1.7,1.4-3.7,3-5c0.6,1.3,1.5,2.2,2.7,2.8c6.9,3.4,13.6,7.1,20.7,10c4.4,1.8,8.2,5.4,13.3,5.2c0,11.7,0,23.3,0,35
	c-1.6,0.2-2.9-0.6-4.2-1.2c-6.5-3.1-13.1-6.2-19.6-9.3c-1.7-0.8-3.6-2.3-4.9,0.6c-0.3-0.4-0.7-0.7-1-1.1c-1-1.4-1.2-4.1-3.5-3.6
	c-2.7,0.6-1.4,3.4-1.4,5.1c-0.1,24.9,0,49.9,0,74.8C571.1,435.8,567.5,437.2,564.1,439z"/>
<path class="st1" d="M1168.3,334c4,11.8-2.5,17.1-11.9,22.9c-9.9,6.1-17.1,6.3-27.2,0.2c-9.6-5.8-13.8-11.5-13.6-23.2
	c0.2-11.4,3.4-17.5,13.4-23.3c10.1-5.8,17.2-6.2,27.2,0C1165.8,316.6,1172.5,322,1168.3,334z"/>
<path class="st7" d="M586.9,287c-3,0-4.3-2.4-5.7-4.3c-16.5-22.4-33-44.9-49.3-67.4c-1.2-1.7-3-3.2-2.7-5.7
	c24.2,13.9,48.5,27.8,72.7,41.8c1.4,0.8,3,1.6,3.4,3.4C598.4,265.1,592.4,275.9,586.9,287z"/>
<path class="st10" d="M386,332c-14.7-7-29.3-14-44-21c-1.9-0.9-3.7-2.3-6-2c-0.1-15.3-0.2-30.6-0.1-45.9c0-5.6,3-9.7,8.1-12.1
	c3.9,9.7,9.7,18.5,14.5,27.7c9.3,17.6,19,35,28.5,52.4C386.7,331.4,386.3,331.7,386,332z"/>
<path class="st3" d="M586.9,287c5.4-11.1,11.5-21.9,18.3-32.2c2.6,2.4,3.6,5.6,3.6,9c0,23.1-0.1,46.1-0.1,69.2
	c-5.2,0.2-8.9-3.3-13.3-5.2c-7.1-2.9-13.8-6.6-20.7-10c-1.2-0.6-2.1-1.6-2.7-2.8C577,305.7,582,296.3,586.9,287z"/>
<path class="st3" d="M574.1,433.3c0-24.9-0.1-49.9,0-74.8c0-1.7-1.3-4.5,1.4-5.1c2.3-0.5,2.5,2.2,3.5,3.6c0.3,0.4,0.7,0.7,1,1.1
	c6,10.5,11.8,21.1,18.1,31.5c3.4,5.6,5.6,12,10.5,16.6c0.2,5-2.4,8.7-6.3,11C593,422.7,583.5,427.9,574.1,433.3z"/>
<path class="st10" d="M608.6,406c-4.9-4.6-7.1-11-10.5-16.6c-6.3-10.3-12.1-20.9-18.1-31.5c1.3-2.9,3.1-1.4,4.9-0.6
	c6.5,3.1,13.1,6.2,19.6,9.3c1.3,0.6,2.6,1.4,4.2,1.2C609,380.7,609.2,393.4,608.6,406z"/>
<path class="st5" d="M812.4,574.1c-12.4,0-22.3-9.8-22.3-22.1c-0.1-12.5,9.9-22.3,22.6-22.3c12.3,0.1,22.2,10,22.1,22.3
	C834.7,564.1,824.5,574.2,812.4,574.1z M793.9,551.9c0.1,10.4,8.4,18.8,18.6,18.8c10.1-0.1,18.6-8.8,18.5-19
	c-0.1-10-8.5-18.4-18.5-18.5C802.2,533.1,793.8,541.5,793.9,551.9z"/>
<path class="st11" d="M418,208.1c-0.4,0.3-0.8,0.5-1.2,0.8C417.2,208.7,417.6,208.4,418,208.1z"/>
<path class="st14" d="M793.9,551.9c-0.1-10.4,8.3-18.8,18.6-18.7c10,0.1,18.4,8.5,18.5,18.5c0.1,10.2-8.4,18.9-18.5,19
	C802.3,570.7,793.9,562.3,793.9,551.9z M804,552c0,2-0.3,4.1,0.1,6c0.5,2.2-2.2,6.1,2,6.5c5,0.4,2.3-4,2.8-6.3
	c0.4-1.9,0.1-3.6,2.9-3.5c2.2,0.1,4,0.4,4.3,3.1c0.2,1.8,0.4,3.6,0.8,5.4c0.5,2.1,2.3,1.6,3.7,1.4c1.9-0.2,0.9-1.6,0.9-2.7
	c0-5-2.9-9.5-0.5-15c2-4.5-1.6-7.1-8.3-7.5c-8.6-0.5-8.6-0.5-8.6,6.1C804,547.6,804,549.8,804,552z"/>
<path class="st6" d="M804,552c0-2.2,0-4.3,0-6.5c0-6.6,0-6.6,8.6-6.1c6.7,0.4,10.2,3,8.3,7.5c-2.4,5.5,0.4,10,0.5,15
	c0,1.1,1,2.4-0.9,2.7c-1.4,0.2-3.2,0.6-3.7-1.4c-0.4-1.8-0.6-3.6-0.8-5.4c-0.3-2.7-2.1-3-4.3-3.1c-2.8-0.1-2.5,1.6-2.9,3.5
	c-0.4,2.3,2.3,6.7-2.8,6.3c-4.2-0.3-1.5-4.2-2-6.5C803.7,556,804,554,804,552z M811.6,550.2c2.6,0,4.5-0.4,4.6-3.4
	c0.1-3-2-3.3-4.3-3.5c-2.4-0.2-3.2,0.9-3.1,3.1C808.9,548.6,808.7,550.7,811.6,550.2z"/>
<path class="st14" d="M811.6,550.2c-2.9,0.4-2.6-1.7-2.7-3.7c-0.1-2.3,0.7-3.4,3.1-3.1c2.3,0.2,4.3,0.5,4.3,3.5
	C816.1,549.8,814.1,550.3,811.6,550.2z"/>
</svg>
