<?xml version="1.0" encoding="utf-8"?>
<!-- Generator: Adobe Illustrator 23.0.1, SVG Export Plug-In . SVG Version: 6.00 Build 0)  -->
<svg version="1.1" id="Layer_1" xmlns="http://www.w3.org/2000/svg" xmlns:xlink="http://www.w3.org/1999/xlink" x="0px" y="0px"
	 viewBox="0 0 50 55" style="enable-background:new 0 0 50 55;" xml:space="preserve">
<g>
	<path d="M0,25.7c4.9,0,5.6-2.7,5.6-5.1c0-1.9-0.3-3.9-0.6-5.8C4.8,12.8,4.5,11,4.5,9c0-6.3,4.1-9,10-9h1.4v3.8h-1.2
		c-4.1,0-5.5,2.2-5.5,5.9c0,1.6,0.2,3.2,0.5,4.9c0.3,1.7,0.5,3.4,0.5,5.2c0.1,4.4-1.9,6.6-5,7.5v0.1c3.1,0.8,5,3.1,5,7.5
		c0,1.9-0.2,3.6-0.5,5.2c-0.3,1.7-0.5,3.3-0.5,5c0,3.9,1.6,6,5.5,6h1.2V55h-1.4c-5.7,0-10-2.5-10-9.5c0-1.9,0.3-3.8,0.6-5.7
		c0.3-1.9,0.6-3.7,0.6-5.6c0-2.1-0.7-5.1-5.6-5.1V25.7z"/>
	<path d="M50,29.2c-4.9,0-5.6,3-5.6,5.1c0,1.9,0.3,3.7,0.6,5.6c0.3,1.9,0.6,3.8,0.6,5.7c0,7-4.3,9.5-10,9.5H34v-3.8h1.2
		c3.9-0.1,5.5-2.1,5.5-6c0-1.7-0.3-3.2-0.5-5c-0.3-1.7-0.6-3.4-0.6-5.2c0-4.4,1.9-6.8,5-7.5v-0.1c-3-0.8-5-3-5-7.5
		c0-1.9,0.3-3.5,0.6-5.2c0.2-1.7,0.5-3.3,0.5-4.9c0-3.7-1.4-5.9-5.5-5.9H34V0h1.4c5.9,0,10.1,2.7,10.1,9c0,1.9-0.3,3.8-0.6,5.7
		s-0.6,3.9-0.6,5.8c0,2.4,0.7,5.1,5.6,5.1V29.2z"/>
</g>
</svg>
