<?xml version="1.0" encoding="utf-8"?>
<!-- Generator: Adobe Illustrator 23.0.1, SVG Export Plug-In . SVG Version: 6.00 Build 0)  -->
<svg version="1.1" id="Layer_1" xmlns="http://www.w3.org/2000/svg" xmlns:xlink="http://www.w3.org/1999/xlink" x="0px" y="0px"
	 viewBox="0 0 137 457.6" style="enable-background:new 0 0 137 457.6;" xml:space="preserve">
<style type="text/css">
	.st0{fill:#8299A3;}
</style>
<g>
	<path className="st0" d="M64.7,149.2c2.3,0.3,4.9,0.6,7.1,0.9c0.9-0.9,1.5-1.8,2.3-2.4c0.3-0.2,1.4,0.2,1.5,0.6
		c0.3,0.7,0.2,1.7,0.3,2.5c-0.2,0.2-0.3,0.3-0.5,0.5c1.7,0.2,3.5,0.5,5.2,0.6c0.3,0,0.8-0.5,0.9-0.8c0.7-1.3,1.7-2,3.1-2.3
		c1.3-0.2,2.5-0.7,3.9-1.1c0.1-0.3,0.1-0.8,0.2-1.3c1.5-0.5,1.5-0.5,1.6-1.5c-0.5-0.1-1-0.2-1.6-0.3c0-0.5-0.1-1-0.1-1.3
		c0.7-0.4,1.2-0.8,1.7-1.1c-0.5-0.3-0.9-0.7-1.7-1.2c0-0.1,0-0.6,0-0.9c0.7-0.5,1.2-0.8,1.7-1.2c-0.5-0.3-0.9-0.7-1.6-1.2
		c0-0.2,0-0.6,0-1c0.6-0.4,1.1-0.8,1.6-1.2c-0.5-0.3-1-0.7-1.7-1.1c0-0.2-0.1-0.7-0.1-1.1c-1.2-0.4-2.3-0.8-3.4-1
		c-1.8-0.2-3.1-1-3.8-2.8c-0.1-0.3-0.8-0.5-1.3-0.5c-1.3-0.1-2.7,0-4,0c0-0.3,0-0.5,0-0.8c1.2,0,2.4,0,3.5,0c1,0,1.7,0,2.2-1.2
		c0.3-0.7,1.2-1.4,1.9-1.6c2-0.5,4-0.7,6-1.1c0.5-0.1,1.2-0.1,1.3-0.4c0.2-0.3,0-1-0.3-1.4c-4-5.9-8.7-11.1-14.9-14.8
		c-0.6-0.4-1.4-0.6-2.2-0.6c-2-0.1-3.9,0-5.9-0.1c-1.2-0.1-2.3-0.1-3.5-0.7c-1.8-0.9-4.1-0.7-6.2-0.8c-0.3,0-0.6,0.4-1,0.7
		c-0.3-0.3-0.6-0.7-1-1c0.3-0.4,0.6-0.7,0.8-1c1.1,0.7,3.6,0.8,4.3,0.1c0.7-0.6,0.5-1.2-0.4-1.5c-3.2-1.1-6.4-2.1-9.7-3.2
		c-0.2,0.6-0.4,1-0.5,1.5c-0.6-0.6-1.2-1.2-1.7-1.7c0.4-0.4,1-1,1.7-1.6c0.1,0.4,0.3,0.8,0.5,1.4c2.2-0.7,4.3-1.3,6.5-2
		c1.1-0.3,2.2-0.7,3.3-1.1c0.9-0.3,1-1,0.4-1.5c-0.7-0.7-3.4-0.6-4.4,0.2c-0.2-0.3-0.4-0.7-0.7-1.1c0.2-0.3,0.4-0.6,0.7-0.9
		c0.1,0,0.2,0,0.2,0c1.6,1.5,3.2,0.1,4.8-0.1c2.6-0.3,5.2-0.8,7.9-1.2c0-3.6,0-7.4,0-11.2c-0.8-0.1-1.6-0.1-2.3-0.2
		c0-0.1,0-0.1,0-0.2c0.7-0.1,1.5-0.1,2.3-0.2c0-4.1,0-8.2,0-12.4c-0.8-0.1-1.6-0.2-2.4-0.2c0-0.1,0-0.2,0-0.2c0.8,0,1.5-0.1,2.4-0.1
		c0-3.8,0-7.5,0-11.5c-0.6,0-1.2,0.1-1.7,0c-1.3-0.2-2.4,0.1-3.8-0.7c-1.7-0.9-4-0.7-6.1-0.9c-0.4,0-0.7,0.4-1.2,0.7
		c-0.3-0.3-0.6-0.6-1-1c0.3-0.3,0.6-0.6,0.6-0.5c1.4,0,2.5,0.1,3.5,0c0.5-0.1,1-0.6,1.5-0.9c-0.5-0.4-0.9-0.9-1.4-1.1
		c-2.9-1-5.9-1.9-8.9-2.9c-0.2,0.6-0.4,1-0.6,1.4c-0.7-0.6-1.3-1.2-1.7-1.6c0.5-0.4,1.1-1,1.8-1.5c0.1,0.3,0.3,0.7,0.5,1.3
		c0.7-0.2,1.4-0.3,2-0.5c2.5-0.8,5-1.6,7.5-2.5c0.4-0.1,0.6-0.7,0.9-1c-0.3-0.2-0.7-0.7-1-0.7c-1.2-0.1-2.4-1.1-3.4,0.3
		c-0.4-0.4-0.7-0.7-1.1-0.9c0.3-0.4,0.6-0.7,0.6-0.7c1.2,0.1,2.1,0.2,3,0.2c1.4-0.1,2.9,0,4.1-0.6c3.5-1.7,7.2-0.4,10.7-0.9
		c0.6-0.1,1.3-0.5,1.8-0.8c7.2-4.5,12.5-10.7,16.7-18c1.4-2.4,2.7-5,4.2-7.8c-1.8,0-3.3,0-4.8,0c0-4.6,0-9.1,0-13.7
		C107.1,0,122,0,137,0c0,152.5,0,305,0,457.6c-2.6,0-5.3,0-8.1,0c0-1.6,0-3.2,0-4.9c-7.1,0-14,0-21.2,0c0-4.8,0-9.4,0-14.4
		c-1.2,0.2-2.1,0.5-3,0.6c-0.5,0.1-0.9,0.2-1.4,0.2c-3.1-0.2-6.3-0.3-9.4-0.5c-0.4,0-0.8-0.3-1-0.5c-1.1-1.1-2.4-1.4-3.9-1.6
		c-3.8-0.5-7.5-1.2-11.3-2.2c1.9-0.4,3.8-0.6,5.7-1.1c2.2-0.6,4.4-1.1,6.6-0.9c0.6,0,1.3-0.3,1.9-0.6c1.1-0.6,2.2-1.2,2.9-1.6
		c-1.3-0.2-3.2-0.4-5.1-0.7c-0.5-0.1-0.9-0.4-1.4-0.5c-1.3-0.5-2.5-1.4-3.8-1.4c-3.2,0-6-1.4-9.1-1.6c-0.7-0.1-1.4-0.2-2.2-0.7
		c1.8-0.4,3.7-0.6,5.5-1.1c2.3-0.7,4.5-1.1,6.9-1c0.5,0,1.1-0.1,1.5-0.4c3.8-3,8.3-2.4,12.5-1.9c6.7,0.8,13.4-0.1,20.2,0.6
		c0-3,0-5.7,0-8.6c-2.1,0-4.2,0-6.5,0c0-1.8,0-3.3,0-5.1c-0.7,0-1.2-0.1-1.7-0.1c-15.9,0-31.9,0-47.8,0c-0.8,0-1.5,0.5-2.3,0.7
		c-0.7,0.2-1.3,0.6-2,0.6c-5.3,0-10.6,0-15.9-0.1c-0.3,0-0.7,0.1-0.9-0.1c-3.9-1.7-8.2-1.2-12.5-2.2c1.4-0.2,2.6-0.4,4-0.6
		c-1.8-1.9-3.8-2.8-6.2-2.9c-4-0.1-8.1-0.2-12.1-0.3c-0.4,0-0.8-0.1-1.3-0.4c0.8-0.1,1.7-0.3,2.5-0.4c0-0.1,0-0.2,0-0.3
		c-5.7-1-11.4-2.1-17.1-3.1c0-0.1,0-0.2,0-0.3c5.7-1.1,11.4-2.1,17.1-3.2c0-0.1,0-0.2,0-0.3c-1.2-0.2-2.5-0.3-3.7-0.5
		c0-0.1,0-0.3,0-0.4c4.8-0.1,9.6-0.2,14.4-0.2c2.3,0,4.9-1.2,6.1-2.9c-0.7-0.1-1.3-0.2-2-0.3c-0.6-0.1-1.2-0.1-1.9-0.4
		c3-0.3,6-0.6,9.1-0.9c0.8-0.1,1.6-0.4,2.4-0.6c0.7-0.2,1.4-0.5,2.1-0.5c5.2-0.1,10.5-0.1,15.7-0.1c0.5,0,1.3,0,1.6,0.3
		c1.2,1.2,2.6,1.1,4,1.1c15.4,0,30.7,0,46.1,0c0.6,0,1.2,0,1.9,0c0-3.6,0-7.1,0-10.7c-0.6-0.1-1.2-0.1-1.8-0.2
		c0-0.1,0.1-0.3,0.1-0.4c-0.6-0.3-1.2-0.8-1.8-0.8c-2.8-0.1-5.6-0.1-8.4,0c-0.7,0-1.4,0.4-2.1,0.6c-0.4,0.1-0.9,0.1-1.2,0
		c-0.7-0.2-1.3-0.7-2-0.7c-2.7-0.1-5.5-0.1-8.3,0c-0.7,0-1.3,0.4-2,0.5c-0.4,0.1-1.1,0-1.3-0.3c-0.5-0.5-0.8-1.2-1.2-2
		c-1.6,0.4-3.5-0.7-5.1,0.6c-0.1,0.1-0.6-0.1-0.7-0.2c-0.3-1.8-2.1-1.9-3.1-2c-2.2-0.3-4.6-1.2-6.3,1c-3.5-2.9-7.8-3.8-11.9-5.5
		c1.2-0.3,2.4-0.4,3.6-0.9c1.9-0.7,3.8-1.6,5.7-2.5c0.9-0.4,1.7-1,2.7-1.7c1.1,1.8,3.2,1.1,5.1,1c1.8-0.1,3.8-0.2,4.5-2.6
		c1.8,1.4,3.9,1.3,5.4,0.6c1.1-0.5,2.5-2.3,1.6-4.4c-0.6,0-1.4-0.1-2.3-0.1c0-1.4,0-2.8,0-4c-2.5-0.9-4.9-1.5-7.1-2.5
		c-1-0.4-2-1.3-2.8-2.2c-1.4-1.7-3-2.6-5.2-2.5c-2,0-4-0.4-6-0.8c-0.2,0-0.4-0.7-0.8-1.5c3.1-0.2,5.8-0.3,8.5-0.7
		c1.1-0.2,2.3-0.9,3-1.8c1.7-2.1,3.7-3.4,6.4-3.6c0.3,0,0.7,0,0.7-0.1c0.6-1.5,2-1,3.3-1.3c0-1.4,0-2.8,0-4.3
		c0.9-0.1,1.6-0.1,2.3-0.2c1.1-2-0.4-3.8-1.4-4.3c-1.5-0.8-3.7-0.8-5.5,0.5c-0.7-2.3-2.7-2.5-4.5-2.5s-3.9-0.9-5.1,1.1
		c-3.5-3-8-3.6-12.1-5.4c2.9-1,5.7-1.7,8.4-2.8c1.3-0.5,2.4-1.6,3.6-2.4c2.1,1.9,4.6,1.3,7.1,0.6c1-0.2,2.1-0.3,2.3-1.6
		c0-0.1,0.6-0.2,0.9-0.1c1.5,0.2,3.1,0.4,4.6,0.5c0.2,0,0.5-0.5,0.7-0.8c0.5-0.6,0.9-1.2,1.1-1.4c1.4,0.3,2.4,0.6,3.3,0.6
		c2.5,0.1,5.1,0,7.6,0c0.9,0,1.8,0.2,2.4-0.8c0.1-0.2,0.7-0.1,1.1,0c0.8,0.2,1.5,0.6,2.3,0.6c2.8,0.1,5.5,0,8.3,0
		c0.9,0,1.9,0.2,1.6-1.3c0.7,0,1.2-0.1,1.9-0.1c0-4.1,0-8.1,0-12.4c-1.8,0.2-3.6,0.3-5.4,0.5c-12.9,1.3-25.9,1.7-38.9,0.9
		c-11.9-0.8-23.7-2.2-35.2-5.3c-5.9-1.6-11.7-3.2-17-6.4c-0.4-0.3-0.9-0.6-1.2-0.9c-2.3-2.1-2.4-4.5,0.2-6.1c3-1.9,6.2-3.5,9.6-4.7
		c10.5-3.8,21.3-5.7,32.3-7c14-1.6,28.1-1.7,42.1-0.8c3.7,0.2,7.4,0.7,11.2,1c0.7,0.1,1.4,0.1,2.3,0.2c0-2.7,0-5.2,0-8.1
		c-0.7,0-1.3,0-2,0c-22.9,0-45.7,0-68.6,0c-4.1,0-7.2-1.5-9.2-5.2c-1.5-2.7-4.6-3.8-7.9-2.8c-0.5,0.1-1,0.3-1.9,0.6
		c1.6-2,2.9-3.2,5.4-3.2c5.2,0.2,10.5,0.1,15.7,0c0.6,0,1.2-0.6,1.6-1c0.3-0.3,0.5-0.8,0.7-1.2c1-2.1,2.6-3.1,5.1-3.1
		c14.8-0.4,29.7-0.8,44.5-1.3c0.4,0,0.7-0.1,1.1-0.1c0-5.8,0-11.4,0-17.2c-1.9,0-3.7,0-5.7,0c0-1.9,0-3.6,0-5.7
		c-2.4,1.8-4.5,3.4-6.3,4.7c0.1,1.2,0.4,2.2,0.3,3.1c-0.1,0.4-1.2,0.9-1.6,0.8c-0.8-0.3-1.4-1-2.3-1.7c-2.1,0.9-4.5,1.9-6.7,2.8
		c-0.1,1,0,2-0.4,2.8c-0.2,0.4-1.5,0.8-1.8,0.5c-0.7-0.5-1.1-1.4-1.7-2.3c-2.3,0.3-5,0.6-7.3,0.9c-0.3,1-0.5,2-1,2.6
		c-0.3,0.3-1.5,0.4-1.8,0.2c-0.6-0.7-0.9-1.7-1.4-2.8c-2.1-0.3-4.8-0.6-7-0.9c-0.7,0.9-1.2,1.8-1.9,2.3c-0.3,0.2-1.6-0.1-1.7-0.5
		c-0.4-0.8-0.3-1.7-0.4-2.9c-2-0.9-4.5-1.9-6.5-2.8c-1.1,0.7-1.9,1.3-2.9,1.7c-0.3,0.1-1.3-0.6-1.3-1c-0.1-0.8,0.3-1.7,0.5-2.7
		c-1.8-1.4-4-3-5.8-4.4c-1,0.4-1.8,1-2.7,1.1c-0.5,0-1.4-0.9-1.4-1.3c0-0.8,0.6-1.7,1.1-2.7c-1.4-1.8-3-3.9-4.5-5.8
		c-0.9,0.2-1.7,0.5-2.6,0.6c-0.3,0-0.8-0.5-1-0.9c-0.7-1.2,0-2.1,1.7-2.8c-1-2.5-2-5-2.9-7.1c-1-0.1-2,0-2.8-0.3
		c-0.4-0.2-0.8-1.4-0.5-1.8c0.4-0.7,1.3-1.1,2.2-1.8c-0.3-2.2-0.6-4.8-0.9-7.3c-0.9-0.3-1.9-0.5-2.7-0.9c-0.3-0.1-0.4-0.8-0.4-1.3
		c0.1-1.2,1.2-1.7,3-1.4c0.3-2.6,0.7-5.3,1-7.5c-0.9-0.7-1.8-1.2-2.2-1.9c-0.2-0.4,0-1.6,0.4-1.7c0.8-0.4,1.8-0.3,2.9-0.5
		c0.9-2.1,1.9-4.5,2.8-6.8c-0.6-0.6-1.3-1.1-1.8-1.7c-0.2-0.3,0-1,0.2-1.5c0.6-1.1,1.8-1.1,3.3,0c1.6-2.1,3.2-4.2,4.6-6
		c-0.4-1.1-0.9-2-1-2.9c0-0.4,0.9-1.2,1.4-1.2c0.8,0.1,1.6,0.7,2.6,1.1c1.8-1.4,3.9-3,5.7-4.4c-0.2-1.1-0.5-2.1-0.3-3
		c0.1-0.4,1.2-1,1.6-0.9c0.8,0.3,1.5,1,2.4,1.7c2-0.8,4.4-1.8,6.7-2.8c0-0.9-0.1-1.8,0-2.6c0.1-0.3,0.6-0.7,1-0.8
		c1.3-0.4,2.1,0.5,2.4,2.4c2.6-0.3,5.2-0.7,7.4-0.9c0.6-1.1,0.8-2.1,1.5-2.8c0.2-0.3,1.5-0.2,1.8,0.2
		C64.2,147.2,64.3,148.2,64.7,149.2z M76.6,55.6c0,12.1,0,24.1,0,36.2c1.2,0.4,2.2,1,3.3,1c7,0.1,13.9,0,20.9,0
		c0.5,0,0.9-0.1,1.3-0.1c0.1-0.7,0.2-1.2,0.2-1.7c0.7-0.1,1.2-0.1,1.8-0.2c0-11.5,0-22.9,0-34.4c-0.7-0.1-1.3-0.1-1.9-0.2
		c-0.1-0.6-0.1-1.1-0.1-1.6c-0.2-0.1-0.4-0.1-0.5-0.1c-4.2,0-8.4-0.2-12.6,0C84.9,54.7,80.6,53.6,76.6,55.6z M119.8,88.8
		c0-10.1,0-20.1,0-30.3c-2.7,0-5.4,0-8.1,0s-2.8,0-3.2,2.7c-1.3,8.8-1.2,17.7,0.2,26.5c0.1,0.4,0.7,1.1,1.1,1.1
		C113.1,88.9,116.4,88.8,119.8,88.8z M79.1,41c7.9,0,15.4,0,23,0c0.1-0.6,0.1-1.1,0.1-1.7c0.7-0.1,1.3-0.1,1.9-0.2
		c0-4.6,0-9.1,0-13.8c-1.9,0-3.6,0-5.4,0c0-1-0.1-1.8-0.2-3.1C93.5,30.2,87.2,36.3,79.1,41z M102,106.3c-7.6,0-15,0-22.7,0
		c0.4,0.3,0.5,0.4,0.7,0.5c7.1,4.3,13,9.7,17.5,16.7c0.2,0.3,0.5,0.7,0.8,0.7c1.9,0.1,3.9,0,5.7,0c0-4.3,0-8.3,0-12.4
		c-0.7-0.1-1.4-0.1-2.3-0.2C101.8,109.9,101.9,108.2,102,106.3z M106,194.6c-0.3,2.3-0.7,4.9-0.9,7.1c1,0.8,1.7,1.4,2.5,2.1
		c0.2,0.1,0.3,0.4,0.4,0.4c1.8,0.5,3.6,1,5.5,1.5c0-8.9,0-17.5,0-26.3c-1.8,0.5-3.4,0.9-5.1,1.4c-0.3,0.1-0.7,0.3-0.7,0.5
		c-0.4,1.3-1.4,1.7-2.6,1.6c0.4,2.8,0.7,5.4,1,7.6c1.1,0.4,2,0.6,2.6,1.2c0.3,0.4,0.4,1.6,0,1.9C108.1,194.1,107.1,194.2,106,194.6z
		 M63,189.2c0.1,0,0.2,0,0.2,0.1c2.9-10.8,5.7-21.6,8.7-32.7c-3-0.4-5.9-0.8-8.9-1.2C63,166.8,63,178,63,189.2z M72,228.6
		c-3-11.1-5.8-21.9-8.7-32.6c-0.1,0-0.2,0.1-0.2,0.1c0,11.1,0,22.2,0,33.7C66,229.4,68.9,229,72,228.6z M89.5,166.9
		c-7.9,7.8-15.5,15.2-23.2,22.7c0.1,0.1,0.1,0.2,0.2,0.4c9.3-5.4,18.6-10.7,28.2-16.3C92.8,171.2,91.1,168.9,89.5,166.9z
		 M60.7,195.4c-7.9,7.9-15.8,15.8-23.9,23.9c2.3,1.7,4.6,3.5,7.1,5.4C49.6,214.7,55.1,205,60.7,195.4z M72.6,228.5
		c2.9-1.2,5.6-2.3,8.5-3.5c-5.7-10-11.3-19.6-16.9-29.3c-0.1,0-0.2,0.1-0.3,0.1C66.7,206.5,69.6,217.2,72.6,228.5z M61,189.2
		c0.1,0,0.2-0.1,0.4-0.1c-2.8-10.7-5.7-21.4-8.6-32.4c-2.9,1.2-5.6,2.4-8.4,3.5C50,170.1,55.5,179.6,61,189.2z M61.4,196
		c-0.1-0.1-0.2-0.1-0.3-0.2c-5.5,9.6-11.1,19.3-16.7,29.1c2.9,1.2,5.6,2.3,8.4,3.5C55.7,217.4,58.6,206.7,61.4,196z M72.6,156.7
		c-3,11.2-5.8,21.9-8.7,32.7c0.1,0,0.2,0.1,0.3,0.1c5.6-9.7,11.2-19.4,16.9-29.3C78.1,159,75.5,157.9,72.6,156.7z M59.1,193.2
		c0-0.1,0-0.2-0.1-0.3c-11,0-22.1,0-33.5,0c0.4,3,0.8,5.9,1.2,9C37.7,199,48.4,196.1,59.1,193.2z M36.7,165.9
		c8.1,8.1,16,15.9,24,23.9c-5.6-9.7-11.2-19.4-16.9-29.3C41.3,162.4,39,164.2,36.7,165.9z M30.3,210.9c10-5.8,19.6-11.3,29.2-16.9
		c0-0.1-0.1-0.2-0.1-0.3c-10.7,2.9-21.5,5.8-32.5,8.8C28,205.4,29.1,208,30.3,210.9z M59.3,191.4c0-0.1,0.1-0.2,0.1-0.3
		c-9.6-5.6-19.3-11.1-29.2-16.9c-1.2,2.9-2.3,5.6-3.4,8.4C37.9,185.6,48.6,188.5,59.3,191.4z M59,192.1c0-0.1,0-0.2,0-0.3
		c-10.7-2.9-21.4-5.7-32.4-8.6c-0.4,3.1-0.8,5.9-1.2,8.9C36.9,192.1,48,192.1,59,192.1z M64.4,195.1c5.8,10,11.4,19.6,17.1,29.5
		c2.5-1.9,4.8-3.7,7.1-5.5C80.5,211.1,72.6,203.3,64.4,195.1z M62.2,229.8c0-11.5,0-22.6,0-33.7c-0.1,0-0.2,0-0.2,0
		c-2.9,10.7-5.8,21.5-8.7,32.5C56.4,229,59.2,229.4,62.2,229.8z M53.3,156.5c3,11.1,5.9,21.8,8.7,32.5c0.1,0,0.2,0,0.2-0.1
		c0-11.1,0-22.2,0-33.6C59.3,155.7,56.4,156.1,53.3,156.5z M30.6,173.7c9.8,5.7,19.4,11.2,29,16.8c-7.9-7.9-15.7-15.7-23.7-23.7
		C34.2,169,32.5,171.2,30.6,173.7z M64.8,189.4c7.8-7.7,15.6-15.6,23.7-23.6c-2.3-1.7-4.6-3.5-7-5.3C75.8,170.4,70.2,180,64.8,189.4
		z M59.6,194.8c0,0,0-0.1-0.1-0.1c-9.6,5.5-19.2,11.1-29,16.8c1.9,2.5,3.7,4.8,5.4,6.9C44,210.4,51.8,202.6,59.6,194.8z M66.6,195.2
		c-0.1,0.1-0.2,0.3-0.3,0.4c7.6,7.5,15.3,15.1,23,22.7c1.4-1.7,3.6-3.1,3.1-5.8c0.8-0.3,1.4-0.5,2-0.8c0-0.2,0-0.3-0.1-0.5
		C85.1,205.9,75.9,200.5,66.6,195.2z M98.6,183.3c-10.9,2.9-21.5,5.7-32.1,8.6c0,0.1,0,0.1,0.1,0.2c11,0,22,0,33.2,0
		C99.4,189.1,99,186.3,98.6,183.3z M66.6,192.9c0,0.1,0,0.2,0,0.3c10.6,2.8,21.2,5.6,32.1,8.6c0.4-3,0.8-5.9,1.1-8.8
		C88.5,192.9,77.6,192.9,66.6,192.9z M91.8,160.4c1-0.5,1.8-1.1,2.7-1.2c0.4-0.1,1.4,0.8,1.3,1.2c-0.1,0.9-0.6,1.8-1,2.9
		c1.4,1.8,3,3.9,4.3,5.6c1.3-0.1,2.2-0.3,3-0.2c1,0.1,1.9,0.4,3.1,0.7c0-0.9-0.1-1.3-0.1-1.8c-0.6-0.1-1-0.2-1.5-0.4
		c0-0.6,0.1-1,0.1-1.2c0.6-0.4,1-0.7,1.5-1c-0.3-0.3-0.8-0.6-1-0.9c-0.3-0.4-0.4-1-0.7-1.6c0.7-0.1,1.2-0.2,1.5-0.3
		c0.6-1.5-0.7-1.3-1.4-1.6c0-0.5,0.1-1,0.1-1.4c0.5-0.1,1-0.2,1.3-0.3c0-0.8,0-1.4,0-2.2c-3.4,0-6.6,0-9.9,0c-0.3,0-0.7,0.5-1,0.8
		c-0.8,0.9-1.9,1.2-2.5,0.3c-1.2-1.8-2.7-0.9-4.5-1.1C89.2,158.2,90.6,159.5,91.8,160.4z M94.9,174.2c-8.2,4.8-16.1,9.4-24.1,14
		c0,0.1,0.1,0.2,0.1,0.3c8.9-2.4,17.9-4.8,27.1-7.2C97,178.9,96,176.7,94.9,174.2z M98,203.9c-9.2-2.5-18.2-4.9-27.1-7.2
		c0,0.1-0.1,0.2-0.1,0.3c8,4.6,16,9.2,24.2,14C96,208.5,97,206.3,98,203.9z M43.3,398.1c0,3.2,2.5,5.9,5.8,5.9c3.2,0,6-2.7,6-5.9
		c0-3.2-2.7-5.8-5.9-5.8C45.9,392.3,43.3,394.9,43.3,398.1z M98.4,13.8c-5,10.3-11,19.8-20.8,26.3c0.7-0.1,1.3-0.4,1.8-0.7
		c7-4.2,12.6-9.8,17.3-16.5C98.8,19.9,98.7,17,98.4,13.8z M101.5,212.1c4.1,0,8,0,12.1,0c0-1.2,0.1-2.2,0-3.3c0-0.3-0.5-0.8-0.8-0.9
		c-2.9-0.8-5.8-1.6-8.7-2.4C103.2,207.7,102.4,209.8,101.5,212.1z M113.5,37c0-4,0-7.8,0-11.6c-1.7,0-3.2,0-4.7,0
		c0,3.9,0,7.8,0,11.6C110.4,37,111.9,37,113.5,37z M74.1,55.5c0,0.5-0.1,0.8-0.1,1.1c0,11.3,0,22.6,0,33.9c0,0.3-0.1,0.6,0,0.8
		c0.1,0.3,0.4,0.6,0.7,0.6c0.3,0,0.6-0.2,0.8-0.5c0.1-0.2,0.1-0.6,0.1-0.9c0-11.3,0-22.5,0-33.8c0-0.4-0.1-0.8-0.1-1.2
		C75,55.5,74.6,55.5,74.1,55.5z M104.1,179.6c2.6-0.7,5.1-1.3,7.5-2c2.3-0.6,2.4-0.8,1.7-3.4c-2.2,0-4.4,0-6.6,0
		c-0.4,0-0.8,0-1.2-0.1c-1.2-0.3-2.4-0.6-3.6-0.9c-0.1,0.2-0.1,0.3-0.2,0.5C102.5,175.6,103.3,177.5,104.1,179.6z M96.2,124.5
		c0.1-0.2,0.2-0.3,0.3-0.5c-4.8-7.2-10.9-12.9-18.9-17.2c0.2,0.5,0.2,0.6,0.2,0.7c0.2,0.2,0.4,0.3,0.6,0.5
		c4.4,3.1,8.1,6.9,11.4,11.1c1.2,1.5,1.8,3.6,4,4c0.2,0,0.3,0.3,0.4,0.4C94.9,123.9,95.5,124.2,96.2,124.5z M106.6,88.7
		c0-0.4,0.1-0.7,0.1-1c0-9.2,0-18.5,0-27.7c0-0.2,0.1-0.5,0-0.6c-0.2-0.3-0.5-0.5-0.7-0.8c-0.2,0.3-0.6,0.5-0.7,0.8
		c-0.1,0.9,0,1.9,0,2.8c0,8.4,0,16.8,0,25.2C105.2,88.2,105,89.2,106.6,88.7z M110.2,367c-1.9,0-3.6-0.1-5.4,0
		c-1.3,0.1-2.1,1-2.1,2.3c0,1.3,0.8,2.2,2.1,2.3c1.8,0.2,3.6,0,5.4,0C110.2,370,110.2,368.6,110.2,367z M110.2,320.4
		c-1.9,0-3.6-0.1-5.4,0c-1.3,0.1-2.1,0.9-2.2,2.2c0,1.1,0.6,2.2,1.7,2.3c1.9,0.2,3.9,0,5.8,0C110.2,323.4,110.2,322,110.2,320.4z
		 M83.6,322.7c0-1.2-1-2.1-2.2-2.1c-1.3,0-2.3,0.9-2.3,2.2c0,1.2,1,2.1,2.2,2.2C82.5,325,83.6,324,83.6,322.7z M81.4,367.1
		c-1.3,0-2.3,1-2.3,2.2c0,1.2,1,2.1,2.2,2.2c1.3,0,2.4-1,2.3-2.2C83.6,368.1,82.6,367.1,81.4,367.1z M107,37.4c1-1.6,0.9-11.3,0-12
		C107,29.3,107,33.2,107,37.4z M20.8,187.6c-0.1,1.5-0.2,2.8-0.2,4.4c1.6-0.8,2.8-1.3,4.2-2C23.3,189.2,22.1,188.5,20.8,187.6z
		 M39.8,228c1.2,0.7,2.3,1.3,3.6,2.1c0-1.6,0-2.8,0-4.2C42.1,226.6,41,227.2,39.8,228z M92.5,162.8c-0.5,1.4-0.9,2.6-1.5,4.1
		c1.6-0.4,2.8-0.7,4.3-1.1C94.3,164.7,93.5,163.9,92.5,162.8z M83.6,224.5c0.2,1.7,0.3,2.9,0.5,4.4c1.3-0.8,2.3-1.5,3.5-2.3
		C86.3,225.9,85.1,225.3,83.6,224.5z M104.7,190.7c-1.3,0.7-2.4,1.3-3.8,2c1.4,0.7,2.5,1.3,3.8,2.1
		C104.7,193.3,104.7,192.1,104.7,190.7z M87.7,163.5c1.5-0.6,2.7-1,4.1-1.6c-1.1-1-2.1-1.7-3.2-2.7C88.3,160.8,88,162,87.7,163.5z
		 M25.4,172.8c-0.6,1.3-1.2,2.4-1.7,3.6c1.4,0,2.7,0,4.3,0C27,175.1,26.3,174,25.4,172.8z M98.4,178.9c1.6,0.2,2.8,0.3,4.4,0.5
		c-0.5-1.4-1-2.5-1.5-3.9C100.3,176.7,99.4,177.6,98.4,178.9z M32.8,216.5c-1.5,0.3-2.8,0.6-4.3,0.9c1,1.2,1.7,2.1,2.6,3.2
		C31.7,219.1,32.2,217.9,32.8,216.5z M36.2,164.9c-0.4-1.5-0.7-2.8-1.1-4.3c-1.1,1-2,1.9-3,2.9C33.5,164,34.7,164.4,36.2,164.9z
		 M78.5,231.7c-1.1-1-2-1.9-3.2-3c-0.2,1.6-0.4,2.9-0.7,4.4C76,232.6,77.1,232.2,78.5,231.7z M79.9,154c0,1.6,0,2.8,0,4.3
		c1.2-0.8,2.3-1.5,3.6-2.4C82.2,155.2,81.1,154.6,79.9,154z M79.4,231.3c1.4-0.7,2.5-1.2,3.8-1.8c-1.2-0.9-2.3-1.6-3.6-2.5
		C79.6,228.5,79.5,229.7,79.4,231.3z M20.7,197.2c1.4-0.9,2.5-1.6,3.7-2.3c-1.4-0.6-2.6-1.1-4-1.8C20.6,194.6,20.6,195.8,20.7,197.2
		z M100.6,197.4c1.3,0.9,2.3,1.6,3.5,2.5c0.2-1.5,0.3-2.7,0.5-4.1C103.3,196.4,102.1,196.9,100.6,197.4z M25.9,171.9
		c1.6,0.1,2.9,0.2,4.4,0.3c-0.8-1.4-1.4-2.5-2.1-3.8C27.3,169.6,26.7,170.6,25.9,171.9z M52.4,155.6c0.4-1.6,0.6-2.8,1-4.3
		c-1.5,0.4-2.6,0.8-3.9,1.2C50.4,153.6,51.3,154.5,52.4,155.6z M39.8,161.9c-0.2-1.6-0.4-2.8-0.6-4.4c-1.2,0.9-2.2,1.6-3.3,2.5
		C37.2,160.7,38.3,161.2,39.8,161.9z M23.5,208.3c0.6,1.3,1.1,2.5,1.7,3.8c0.9-1.3,1.7-2.3,2.7-3.6C26.3,208.4,25,208.4,23.5,208.3z
		 M52.3,230c-1,0.8-1.9,1.6-3,2.5c1.2,0.4,2.4,0.7,3.8,1.1C52.8,232.2,52.5,231,52.3,230z M30,213c-1.5,0-2.7,0-4.3,0
		c0.8,1.3,1.4,2.3,2.2,3.5C28.7,215.2,29.3,214.2,30,213z M44.2,230.6c1.4,0.6,2.5,1.1,3.9,1.6c-0.2-1.6-0.3-2.8-0.5-4.3
		C46.4,228.8,45.5,229.6,44.2,230.6z M73.9,151.9c-1.4-0.3-2.5-0.6-4-0.9c0.4,1.5,0.8,2.7,1.2,4.2C72.1,154,72.9,153,73.9,151.9z
		 M36,220.1c-1.5,0.4-2.7,0.8-4,1.2c0.9,1,1.8,1.9,2.8,3.1C35.2,222.7,35.5,221.6,36,220.1z M39.6,223.1c-1.5,0.7-2.6,1.2-4,1.8
		c1.1,0.9,2.1,1.6,3.2,2.5C39.1,226,39.3,224.7,39.6,223.1z M57,154.7c0.5-1.6,0.9-2.7,1.4-4.2c-1.5,0.2-2.6,0.4-4.1,0.6
		C55.3,152.4,56.1,153.4,57,154.7z M64.4,234.8c1.5-0.1,2.7-0.2,4.1-0.3c-0.9-1.4-1.6-2.4-2.4-3.7C65.5,232.2,65,233.3,64.4,234.8z
		 M64.7,150.4c0.6,1.5,1.1,2.7,1.7,4.1c0.9-1.3,1.6-2.4,2.4-3.6C67.4,150.7,66.2,150.5,64.7,150.4z M58.1,234.6
		c-0.5-1.5-0.9-2.7-1.4-4.2c-1,1.3-1.7,2.3-2.6,3.5C55.5,234.1,56.7,234.3,58.1,234.6z M73.6,233.3c-1-1.1-1.8-2.1-2.8-3.3
		c-0.4,1.5-0.8,2.8-1.2,4.3C71.1,233.9,72.2,233.6,73.6,233.3z M78.9,153.5c-1.5-0.4-2.6-0.8-4-1.2c0.2,1.5,0.4,2.7,0.7,4.2
		C76.7,155.4,77.7,154.6,78.9,153.5z M101.2,209.9c0.5-1.4,0.9-2.6,1.4-3.9c-1.5,0.2-2.8,0.3-4.3,0.5
		C99.3,207.7,100.1,208.7,101.2,209.9z M21.6,202.4c1.3-1.1,2.2-1.9,3.4-2.8c-1.5-0.5-2.7-0.8-4.1-1.3
		C21.2,199.7,21.4,200.9,21.6,202.4z M87.5,221.8c0.3,1.5,0.6,2.8,0.9,4.3c1.1-1,2-1.8,3.2-2.7C90.1,222.8,88.9,222.3,87.5,221.8z
		 M26.3,180.7c-1.1-1.1-2-2.1-3-3.2c-0.5,1.5-0.8,2.6-1.2,4C23.5,181.2,24.8,181,26.3,180.7z M83.9,160.8c1.4-0.8,2.6-1.4,3.9-2.1
		c-1.2-0.8-2.2-1.5-3.4-2.3C84.3,157.9,84.1,159.1,83.9,160.8z M104.7,189.6c-0.2-1.5-0.3-2.6-0.5-4.1c-1.3,0.9-2.3,1.6-3.5,2.4
		C102.1,188.5,103.2,189,104.7,189.6z M25.1,185.3c-1.2-1-2.2-1.8-3.4-2.8c-0.3,1.5-0.5,2.7-0.8,4.1
		C22.4,186.1,23.6,185.7,25.1,185.3z M59.2,234.6c1.6,0.1,2.8,0.2,4.2,0.2c-0.7-1.4-1.3-2.5-2-3.9C60.6,232.2,60,233.3,59.2,234.6z
		 M48.4,152.8c-1.4,0.6-2.5,1-3.8,1.6c1.2,1,2.2,1.8,3.4,2.7C48.1,155.6,48.2,154.4,48.4,152.8z M100.8,174.5
		c-0.6-1.2-1.2-2.3-1.8-3.6c-0.8,1.3-1.6,2.3-2.4,3.6C98,174.5,99.3,174.5,100.8,174.5z M43.6,154.9c-1.3,0.7-2.3,1.3-3.6,2.1
		c1.3,0.8,2.4,1.5,3.6,2.2C43.6,157.7,43.6,156.4,43.6,154.9z M33,168.4c-0.7-1.5-1.2-2.6-1.8-4c-0.9,1.1-1.6,2-2.5,3.2
		C30.2,167.8,31.5,168.1,33,168.4z M98.3,170c-0.9-1.2-1.6-2.2-2.4-3.3c-0.7,1.4-1.2,2.5-1.8,3.8C95.6,170.4,96.8,170.2,98.3,170z
		 M26,204.5c-0.1-0.1-0.1-0.3-0.2-0.4c-1.2-0.2-2.5-0.4-4-0.7c0.5,1.4,0.8,2.5,1.2,3.5C24.1,206.1,25.1,205.3,26,204.5z M59.5,150.5
		c0.8,1.4,1.4,2.5,2.2,3.9c0.7-1.5,1.2-2.6,1.8-3.9C62.1,150.5,61,150.5,59.5,150.5z M76.2,157.1c1,0.4,1.8,0.8,2.6,1.1
		c0-1.2,0-2.2,0-3.4C77.9,155.6,77.1,156.2,76.2,157.1z M96.6,210.9c0.3,1.7,1.6,1.4,2.6,1.3c0.5-0.1,1-0.6,1.5-0.9
		c-0.1-0.1-0.2-0.3-0.2-0.4C99.1,210.9,97.9,210.9,96.6,210.9z M44.3,225.8c0,1.3,0,2.3,0,3.6c1-0.8,1.8-1.4,2.7-2.2
		C46.1,226.7,45.4,226.3,44.3,225.8z M24.7,194c0-1,0-1.9,0-2.9c-1.1,0.5-2,1-3.2,1.5C22.7,193.2,23.7,193.6,24.7,194z M78.8,226.9
		c-1.1,0.5-1.9,0.8-2.8,1.2c0.9,0.8,1.6,1.5,2.6,2.5C78.6,229.2,78.7,228.2,78.8,226.9z M74.4,228.6c-1.1,0.4-1.9,0.6-2.9,1
		c0.8,0.9,1.5,1.7,2.4,2.7C74.1,230.9,74.2,229.9,74.4,228.6z M60.9,154.6c-0.7-1.2-1.2-2-1.9-3.1c-0.4,1.2-0.8,2.2-1.2,3.3
		C58.9,154.8,59.8,154.7,60.9,154.6z M40.4,223.3c-0.2,1.3-0.3,2.3-0.5,3.5c1.1-0.7,2-1.2,3.1-1.9C42,224.4,41.3,223.9,40.4,223.3z
		 M94.9,166.9c-1.4,0.3-2.3,0.5-3.6,0.8c0.8,0.9,1.3,1.6,2,2.4C93.8,169,94.3,168.1,94.9,166.9z M96.6,175.5c0.5,1,0.8,1.8,1.3,2.7
		c0.8-1,1.4-1.8,2.2-2.7C98.8,175.5,97.8,175.5,96.6,175.5z M82.9,224.7c-1.1,0.6-1.8,1-2.7,1.5c1.1,0.7,1.9,1.3,3,2
		C83.1,226.9,83,226,82.9,224.7z M104.1,184.5c-0.3-1-0.4-1.6-0.6-2.4c-1.3,0.3-2.4,0.6-3.4,0.9c0,0.1,0,0.2,0.1,0.4
		C101.3,183.7,102.5,184.1,104.1,184.5z M69.2,151.8c-0.8,1.2-1.3,2.1-2,3.1c1.1,0.2,1.9,0.3,2.9,0.4
		C69.8,154.1,69.6,153.2,69.2,151.8z M33.6,216.9c-0.5,1.3-0.9,2.2-1.4,3.4c1.4-0.4,2.3-0.7,3.4-1.1
		C34.9,218.5,34.4,217.8,33.6,216.9z M97.6,207.2c-0.4,1-0.8,1.8-1.1,2.6c1.2,0,2.2,0,3.4,0C99.1,208.8,98.4,208.1,97.6,207.2z
		 M58.8,233.6c0.7-1.2,1.2-2,1.9-3.1c-1.1-0.1-2-0.2-3-0.3C58,231.3,58.3,232.3,58.8,233.6z M33.8,167.9c0.8-0.8,1.3-1.4,2.1-2.2
		c-1.2-0.4-2.2-0.7-3.5-1C32.9,165.9,33.3,166.8,33.8,167.9z M54.1,152.3c-0.3,1.4-0.5,2.3-0.8,3.5c1.1-0.2,1.9-0.4,2.9-0.7
		C55.4,154.1,54.9,153.4,54.1,152.3z M84.4,161.5c0.9,0.7,1.6,1.2,2.5,1.8c0.3-1.2,0.5-2.2,0.7-3.5
		C86.4,160.4,85.5,160.9,84.4,161.5z M21.9,187.2c1.1,0.7,1.9,1.3,3,1.9c0.1-1.1,0.2-2,0.3-3C24.1,186.5,23.2,186.8,21.9,187.2z
		 M25.6,200.3c-1,0.9-1.8,1.5-2.7,2.4c1.3,0.2,2.2,0.4,3.4,0.6C26,202.2,25.8,201.4,25.6,200.3z M26.5,172.8c0.9,1.2,1.5,2,2.3,2.9
		c0.5-1,0.9-1.7,1.4-2.7C28.8,172.9,27.9,172.9,26.5,172.8z M43.2,159.9c-1-0.6-1.9-1.2-3.1-1.9c0.2,1.4,0.4,2.4,0.5,3.6
		C41.6,161,42.3,160.5,43.2,159.9z M55.9,230c-1.1-0.3-1.9-0.4-2.9-0.7c0.3,1.3,0.5,2.3,0.8,3.6C54.6,231.7,55.2,231,55.9,230z
		 M29.1,168.4c0.7,1.3,1.3,2.1,1.9,3.2c0.6-0.9,1.1-1.6,1.7-2.4C31.5,169,30.6,168.8,29.1,168.4z M103.1,185.1
		c-1.3-0.3-2.3-0.6-3.4-0.8c0.3,1.1,0.4,1.9,0.7,2.9C101.3,186.5,102,185.9,103.1,185.1z M32.6,215.7c-0.7-0.9-1.2-1.6-1.8-2.5
		c-0.6,1.1-1.1,2-1.7,3.1C30.4,216.1,31.3,216,32.6,215.7z M30,211.8c-0.6-1-1-1.7-1.5-2.6c-0.7,1-1.3,1.8-2,2.9
		C27.7,212,28.7,211.9,30,211.8z M87.4,225.5c-0.3-1.4-0.5-2.4-0.7-3.6c-0.9,0.7-1.6,1.3-2.4,1.9C85.3,224.4,86.2,224.9,87.4,225.5z
		 M69.8,229.8c-1.1,0.2-1.9,0.3-3,0.5c0.7,1,1.3,1.9,2.1,2.9C69.3,232,69.5,231,69.8,229.8z M51.5,228.8c-1.1-0.4-1.9-0.6-3-1
		c0.2,1.2,0.3,2.2,0.4,3.3C49.8,230.4,50.5,229.7,51.5,228.8z M24.4,177.4c1,1,1.8,1.7,2.6,2.4c0.3-0.9,0.6-1.7,1-2.6
		C26.7,177.3,25.7,177.3,24.4,177.4z M26.3,181.6c-1.2,0.2-2.2,0.4-3.5,0.6c1.1,0.9,1.9,1.5,2.8,2.3
		C25.9,183.5,26.1,182.7,26.3,181.6z M21.8,197.6c1.3,0.4,2.3,0.8,3.5,1.2c-0.2-1.1-0.3-2-0.4-3C23.8,196.4,22.9,196.9,21.8,197.6z
		 M95.8,174c0.7-1,1.2-1.9,1.9-3c-1.3,0.2-2.3,0.3-3.5,0.4C94.7,172.3,95.2,173,95.8,174z M39.3,162.6c-1.1-0.5-2-0.9-3.3-1.5
		c0.4,1.3,0.7,2.3,1.1,3.4C37.9,163.8,38.5,163.3,39.3,162.6z M74.1,153c-0.9,1-1.5,1.7-2.3,2.7c1.1,0.3,1.9,0.5,2.9,0.8
		C74.5,155.3,74.3,154.3,74.1,153z M36.8,220.4c-0.3,1.2-0.6,2.2-0.9,3.5c1.2-0.6,2.1-1,3.2-1.5C38.3,221.7,37.7,221.1,36.8,220.4z
		 M103.7,195.3c-1.2-0.7-2.1-1.2-3.1-1.7c-0.1,1.1-0.2,1.9-0.3,3C101.5,196.1,102.4,195.7,103.7,195.3z M100.1,198.2
		c-0.2,1.1-0.3,1.9-0.5,3c1.2-0.4,2.2-0.6,3.4-1C101.9,199.5,101.2,198.9,100.1,198.2z M49.1,153.9c-0.1,1.2-0.2,2.1-0.3,3.3
		c1-0.3,1.8-0.6,2.9-0.9C50.8,155.4,50.1,154.7,49.1,153.9z M47.3,157.8c-0.9-0.8-1.7-1.4-2.7-2.2c0,1.3,0,2.2,0,3.5
		C45.6,158.6,46.4,158.3,47.3,157.8z M91.2,222.2c-0.4-1.2-0.7-2.2-1-3.2c-0.8,0.7-1.4,1.3-2.2,2C89.1,221.4,90,221.7,91.2,222.2z
		 M90.2,166.7c0.4-1.3,0.7-2.3,1.1-3.5c-1.2,0.5-2.2,0.8-3.2,1.2C88.9,165.2,89.5,165.8,90.2,166.7z M83.4,157c-1,0.7-1.9,1.3-2.9,2
		c0.9,0.5,1.7,1,2.6,1.5C83.2,159.2,83.3,158.2,83.4,157z M27.8,207.5c-0.4-0.9-0.6-1.7-1-2.6c-0.8,0.9-1.5,1.6-2.5,2.6
		C25.7,207.5,26.6,207.5,27.8,207.5z M65.2,230.4c-1.2,0.1-2,0.1-3,0.2c0.6,1.1,1,2,1.6,3.2C64.4,232.5,64.8,231.6,65.2,230.4z
		 M100.6,191.9c1.1-0.6,2-1.1,3.2-1.7c-1.3-0.5-2.2-0.8-3.4-1.2C100.5,189.9,100.5,190.7,100.6,191.9z M65.5,154.6
		c-0.5-1-0.9-2-1.4-3.2c-0.6,1.2-1,2.1-1.6,3.2C63.6,154.6,64.5,154.6,65.5,154.6z M100.4,201.9c0,0.1,0,0.2,0,0.3
		c1,0.3,2,0.5,3.1,0.8c0.1-0.8,0.2-1.4,0.3-2.1C102.6,201.3,101.5,201.6,100.4,201.9z M101.4,205.2c0-0.1,0-0.3,0-0.4
		c-0.8-0.2-1.6-0.5-2.6-0.8c-0.2,0.5-0.3,0.9-0.6,1.6C99.5,205.5,100.5,205.4,101.4,205.2z M92,221.8c0.5-3,0.5-3.1-1-3
		C91.3,219.8,91.7,220.8,92,221.8z"/>
</g>
</svg>
