<?xml version="1.0" encoding="utf-8"?>
<!-- Generator: Adobe Illustrator 23.0.1, SVG Export Plug-In . SVG Version: 6.00 Build 0)  -->
<svg version="1.1" id="Layer_1" xmlns="http://www.w3.org/2000/svg" xmlns:xlink="http://www.w3.org/1999/xlink" x="0px" y="0px"
	 viewBox="0 0 2092.5 628.7" style="enable-background:new 0 0 2092.5 628.7;" xml:space="preserve">
<style type="text/css">
	.st0{fill:#282828;}
	.st1{fill:#FFFFFF;}
</style>
<path class="st0" d="M803.8,276.1c-46.5-7.8-63.4-16.6-112.3-40.1c-48.9-23.4-67.4-77.5-67.4-77.5c2.3-20.5,12-82.2,63.1-123.9
	c13-10.6,26.3-18,38.3-23.1C535.3-28.7,435.3,131.5,402,157.7C382.4,173,225.1,245,196,239c-0.4-0.1-0.7-0.2-0.7-0.2
	c-27.3-7.3-50.7,20-50.7,20l-8.8,10.8C9.2,309.8,0,351.5,0,351.5s6,60.6,151.1,117c0,0,3.7-2.5,10.4-6.1l0.5-0.3l5.5,7.4
	c0,0,3.2-8.4,9.9-14.4l5.6-2.6c2.5-1,5.1-1.9,7.8-2.9l0.3-0.1l7,15.7c0,0,1.6-12.7,10.4-20.6l6.3-1.8c0.5-0.1,1-0.2,1.5-0.3
	c3.9-0.8,7.9-1.6,12.1-2.2l4.6,24.3c0.1-0.4,5.7-20.4,17.9-26.4c0.3-0.1,0.6-0.1,1-0.1c3-0.1,6-0.1,9.1-0.1l0,0l0.9,6.2l3.1,22.1
	c0,0,11.3-27.9,19.5-26.7c3.5,0.4,6.9,1,10.5,1.6l1,30c0.2-0.6,6.4-19.5,17.9-25.6c2.4,0.7,4.8,1.4,7.2,2.2l-4.8,33.8
	c0,0,16.7-29.6,28.2-24.8c0.1,0,0.2,0.1,0.3,0.1c0.1,0,0.2,0.1,0.3,0.2c1.5,0.7,3,1.4,4.5,2.1l-9.5,37.2
	c0.4-0.6,17.4-25.1,31.9-24.8c1.8,1.1,3.5,2.2,5.3,3.4c1,0.6,1.9,1.3,2.9,1.9l-15,31.5c0,0,18.6-14.8,32.1-19.1
	c0.1,0.1,0.2,0.2,0.3,0.2c0,0,21,19.5-21.1,50.6l0,0c0.9,0.7,39.8,30.1,134.7-28.5c1.4,1.7,2.4,2.8,2.8,3.3c0,0.1,0.1,0.1,0.1,0.2
	c0,0.1,0.1,0.1,0.1,0.1c57.4,69.6,148.2,113.5,148.2,113.5c-56.9-146-36-150-36-150c121.9-93.3,222-105.1,222-105.1
	s41.3-8.6,118,13.3l122.8,83.5c96.4,67.4,159,42.7,159,42.7l-46.3-57.7l-28.7,0.4c-72.9-59.8-139.3-169.4-139.3-169.4
	c-40.9-17.8-33.6-18.4-33.6-18.4c5.6-3,23.9,0.6,23.9,0.6c-11-26.8,34.9-155.1,37.2-174.4C1063.4,77.5,1099,0,1099,0
	c-65.1,12.2-101.1,58.6-101.1,58.6c-20.7,59.6-39.1,90.5-39.1,90.5s-18.4,61.7-73.3,99.2C830.5,285.7,803.8,276.1,803.8,276.1z"/>
<g>
	<path class="st1" d="M384.2,426.4c-12.8,0-24.6-2.1-35.4-6.1c-10.9-4-20.2-10.2-27.9-18.4c-7.7-8.1-13.9-18.2-18.1-30.3
		c-4.2-12.1-6.5-26.1-6.5-42.1c0-14.9,2.1-28.2,6.1-40.3c4-12.1,10-22.4,17.9-31c7.5-8.2,16.8-14.7,27.9-19.3
		c11-4.6,23.1-6.8,36.3-6.8c7.2,0,13.9,0.5,19.6,1.4c5.8,0.9,11.2,2.1,16.1,3.5c5.1,1.6,9.8,3.3,14,5.3c4.2,1.9,7.9,3.9,11,5.4v45.4
		h-5.1c-2.1-1.9-4.9-4.4-8.2-7.2c-3.3-2.8-7-5.4-11.2-8.1c-4.2-2.6-8.8-4.9-13.9-6.7c-4.9-1.8-10.2-2.8-15.8-2.8
		c-6.3,0-12.1,1.1-17.9,3.2c-5.6,2.1-10.9,5.6-15.6,10.5c-4.6,4.7-8.2,11-11,18.9s-4.2,17.4-4.2,28.6c0,11.7,1.6,21.6,4.6,29.3
		c3,7.9,6.8,14,11.6,18.6s10,7.9,15.8,9.8c5.8,1.9,11.6,3,17.2,3c5.4,0,10.7-0.9,16-2.6s10.2-4.2,14.6-7.2c3.9-2.5,7.4-4.9,10.5-7.7
		c3.2-2.8,6-5.1,8.1-7.2h4.6v44.7c-4.4,2.1-8.4,4-12.5,6c-4,1.9-8.1,3.5-12.5,4.7c-5.6,1.8-10.9,3.2-15.8,4
		C399.7,425.8,392.8,426.4,384.2,426.4z"/>
	<path class="st1" d="M632.2,422.7h-44.4v-82.4h-65.6v82.4h-44.4V235.7h44.4v68.4h65.6v-68.4h44.4V422.7z"/>
	<path class="st1" d="M800.7,422.7H676.2V235.7h124.5v36.1h-80.3v32.3H795v36.1h-74.5v46.3h80.3V422.7z"/>
	<path class="st1" d="M997.2,422.7h-45.9l-11.9-37.9h-63.7l-11.9,37.9H819l63.5-186.9h51.2L997.2,422.7z M928.6,350.6l-21-67
		l-21.2,67H928.6z"/>
	<path class="st1" d="M1164.1,294.7c0,8.4-1.4,16.5-4,24.6c-2.6,8.1-6.5,14.7-11.6,20.2c-6.8,7.4-14.6,13-23,16.7
		c-8.4,3.7-18.9,5.6-31.6,5.6h-27.7v60.9h-44.4V235.7h73.1c10.9,0,20.2,1.1,27.7,3.2c7.5,2.1,14.2,5.1,20,9.3
		c7,4.9,12.3,11.2,16,18.9C1162.3,274.7,1164.1,284,1164.1,294.7z M1118.2,295.7c0-5.3-1.2-9.8-3.9-13.7c-2.6-3.9-5.6-6.5-9.1-7.9
		c-4.6-1.9-9.1-3.2-13.5-3.3c-4.4-0.2-10.2-0.4-17.5-0.4h-7.7v55.9h12.8c7.5,0,13.9-0.5,18.8-1.6c4.9-1.1,8.9-3,12.3-6
		c2.8-2.6,4.9-5.8,6.1-9.6C1117.6,305.7,1118.2,301.2,1118.2,295.7z"/>
	<path class="st1" d="M1333.5,363.9c0,18.4-7.2,33.3-21.6,44.9c-14.4,11.6-33.8,17.4-58.6,17.4c-14.2,0-26.7-1.4-37.4-4
		c-10.5-2.8-20.5-6.1-29.8-10.3v-44.9h4.9c9.1,7.9,19.5,14,30.9,18.4c11.4,4.2,22.3,6.5,32.8,6.5c2.6,0,6.3-0.2,10.7-0.7
		c4.4-0.5,8.1-1.4,10.7-2.5c3.3-1.6,6.1-3.3,8.4-5.6c2.3-2.3,3.3-5.6,3.3-10c0-4-1.6-7.7-4.7-10.7c-3.2-3-7.9-5.3-14-6.8
		c-6.5-1.8-13.3-3.3-20.5-4.7c-7.2-1.4-14-3.3-20.3-5.6c-14.6-5.1-24.9-12.1-31.2-20.9s-9.5-19.6-9.5-32.6
		c0-17.4,7.2-31.6,21.6-42.6c14.4-11,32.8-16.5,55.4-16.5c11.4,0,22.6,1.2,33.7,3.5c11,2.5,20.7,5.4,28.8,8.9v43.1h-4.7
		c-7-6-15.4-11-25.4-15.1c-10-4-20.3-6.1-30.9-6.1c-3.7,0-7.4,0.4-11,0.9c-3.7,0.5-7.2,1.6-10.5,3.2c-3,1.2-5.6,3.2-7.7,5.8
		c-2.1,2.6-3.2,5.4-3.2,8.8c0,4.9,1.8,8.8,5.3,11.4s10,5.1,19.6,7.2c6.3,1.4,12.5,2.8,18.2,4.2c5.8,1.4,12.1,3.2,18.8,5.6
		c13.2,4.7,23,11,29.3,19.1C1330.3,340.6,1333.5,351,1333.5,363.9z"/>
	<path class="st1" d="M1518.3,422.7H1474v-82.4h-65.6v82.4H1364V235.7h44.4v68.4h65.6v-68.4h44.4V422.7z"/>
	<path class="st1" d="M1721.6,422.7h-45.9l-11.9-37.9h-63.7l-11.9,37.9h-44.7l63.3-186.9h51.2L1721.6,422.7z M1653,350.6l-21.2-67
		l-21.2,67H1653z"/>
	<path class="st1" d="M1912.2,422.7H1858l-46.8-68.6h-20.5v68.6h-44.2V235.7h74.5c10.2,0,18.9,0.7,26.3,1.9c7.4,1.2,14.2,4,20.5,8.2
		c6.5,4.2,11.6,9.6,15.4,16.3c3.9,6.7,5.8,15.1,5.8,25.1c0,13.9-3,25.1-8.8,33.8c-6,8.8-14.4,16-25.3,21.7L1912.2,422.7z
		 M1842.9,292.9c0-4.7-0.9-8.8-2.6-12.1s-4.7-6-9.1-7.9c-3-1.4-6.5-2.1-10.5-2.5c-4-0.4-8.6-0.5-14-0.5h-16.1v50.5h13.7
		c7,0,13-0.4,17.9-1.1c4.7-0.7,8.8-2.5,12.1-5.1c3.2-2.6,5.3-5.4,6.8-8.6C1842.6,302.6,1842.9,298.2,1842.9,292.9z"/>
	<path class="st1" d="M2092.5,422.7H2038l-51.6-74.9l-10.3,13.9v61h-44.4V235.7h44.4v84.7l61.6-84.7h51.6l-67.3,86.6L2092.5,422.7z"
		/>
</g>
</svg>
