<?xml version="1.0" encoding="utf-8"?>
<!-- Generator: Adobe Illustrator 23.0.1, SVG Export Plug-In . SVG Version: 6.00 Build 0)  -->
<svg version="1.1" id="Layer_1" xmlns="http://www.w3.org/2000/svg" xmlns:xlink="http://www.w3.org/1999/xlink" x="0px" y="0px"
	 viewBox="0 0 740 443.8" style="enable-background:new 0 0 740 443.8;" xml:space="preserve">
<style type="text/css">
	.st0{opacity:0.21;enable-background:new    ;}
</style>
<path class="st0" d="M199.3,238.1c1.1-0.4,2.3-1,3.4-1.3c10.1-2.6,14.9-9.6,13.6-20c-0.5-3.6-1.3-7.2-2.7-10.6
	c-1.2-3.2-3.3-6.1-5.2-9.5c5.9-0.5,10.9,1.3,14.9,4.8c8.5,7.5,16.5,15.4,24.7,23.2c0.6,0.6,1.2,1.2,1.6,1.9
	c8.4,12.9,21.6,10.4,33.8,10.1c35.8-1,71.5-2.6,107.3-3.6c28.2-0.7,56.4,0.7,83.7,8.3c11,3.1,21.5,7.9,31.9,12.6
	c3.9,1.8,7,5.5,10.1,8.8c3,3.3,2.8,6.9-1.2,9.3c-4.4,2.6-9,5.3-13.8,6.8c-27,8.4-54.2,16.7-82.8,18c-23,1.1-45.6-2-67.5-9.2
	c-30.6-10.1-60-22.9-87.7-39.5c-6.8-4.1-14.3-4.7-22.2-4.3c-13.1,0.7-26.3,1.2-39-3.5c-0.9-0.3-1.8-0.7-2.7-1.1
	C199.4,238.9,199.4,238.5,199.3,238.1z"/>
<path class="st0" d="M259.7,271.8c0.5-3.4,0.8-6.2,1.3-9.2c10.2,3.1,16.6,10.1,22.2,18.2c1.9,2.8,4.4,5.4,7.1,7.4
	c13.1,9.3,24.5,20.1,31.2,35c1.2,2.5,2,5.2,3.5,9.3c-5.3,0.3-9.9,1.4-14.2,0.5c-10.2-2.2-20.8-4-30.1-8.4c-12.7-6-25.2-7.8-39-6
	c3.6-2.2,7.2-4.4,11.6-7.1c-4.7-2.6-8.8-5-13-7.2c-18.6-9.7-37.5-18.9-55.8-29c-15.2-8.4-31.2-9.5-47.9-8.5
	c-11.8,0.7-23.6,0.8-35.4,0.8c-3.4,0-6.8-1.2-10.3-3.1c3.1-0.6,6.2-1.3,9.3-1.8c5.7-1,11.6-1.4,17.2-2.9c12-3.1,15.6-9.9,12.1-21.7
	c-0.3-0.9-0.5-1.9-0.1-3.4c1.2,1.1,2.3,2.4,3.6,3.4c8.3,6.6,16.4,13.5,25.1,19.6c2.5,1.8,6.6,2.3,9.9,2.1
	c29.5-2.6,58.2,0.4,86.1,10.6C255.7,270.6,257.4,271.1,259.7,271.8z"/>
<path class="st0" d="M454.8,210.9c12-11.4,12.6-17,4.2-30.9c4.1-1.4,7.9-0.5,10.8,1.9c5.7,4.7,11.3,9.8,16.4,15.2
	c3,3.2,6,4.6,10.4,4.5c21.7-0.7,43.3,0.2,64.6,4.9c27.7,6.1,50.8,19.7,66.1,44.4c2.3,3.7,3.8,8.2,4.8,12.5c1.5,6.8-0.8,9-7.8,7.8
	c-5.7-1-11.3-2.8-17-4c-34-7.2-64.4-21.9-92.3-42.3c-7.2-5.3-14.8-10.3-22.6-14.6c-3.2-1.8-7.6-2.4-11.3-2.1
	c-5.6,0.3-11.1,2-16.7,2.8C461.4,211.2,458.5,210.9,454.8,210.9z"/>
<path class="st0" d="M361.6,159.6c-1.2-3.6-2.2-6.6-3.3-10c7.7-1.2,13.7,1.5,19.1,5.3c4.5,3.2,9.3,4.7,14.6,5.5
	c15,2.2,28.3,8.3,40.3,17.5c3.5,2.7,3.1,4.9,0.6,7.7c-5.5,6-12.6,9.1-20.2,11.5c-2.2,0.7-4.5,1.4-6.8,1.4
	c-12,0.4-21.8,5.3-30.2,14.1c1.1-3.8,2.1-7.6,3.3-11.6c-9.7-0.8-19-1.1-28.2-2.4c-13.8-2-27.9-3.5-41.2-7.4c-13.7-4-26.2-1.8-39,2.4
	c-8.5,2.8-17.2,4.9-25.9,7c-2.8,0.7-5.9,0.1-8.8,0.1c-0.2-0.5-0.3-0.9-0.5-1.4c2.8-1.5,5.6-3,8.5-4.4c3.3-1.6,6.8-2.8,10-4.6
	c9.7-5.5,12.7-13.4,9.6-24.6c-0.6-2.2-1.5-4.4-1.7-7.1c1.7,1.7,3.3,3.6,5.3,5.1c6.5,5.1,13,10.3,19.8,15c1.8,1.2,5,1.7,7,0.9
	C315.5,170.7,337.5,162.5,361.6,159.6z"/>
<path class="st0" d="M532.8,298.8c3.3-10.4,1.8-18.4-7.1-24.1c0.2-0.5,0.4-1.1,0.6-1.6c3.4,0.6,7.2,0.3,10,1.9
	c4.1,2.3,7.9,5.6,11.1,9.1c3,3.2,6.1,4.2,10.5,3.9c20.1-1.3,40-1,58.6,8.3c11.7,5.8,21.7,13.9,27.5,25.9c1.8,3.7,2.1,8.2,2.3,12.4
	c0.1,3-2.3,4.3-5.3,3.5c-23.5-6-46.5-12.7-66-28.3c-6.7-5.4-14.2-9.9-21.2-14.9c-3.6-2.6-7.2-1.7-10.9-0.2
	C539.8,295.9,536.8,297.2,532.8,298.8z"/>
<path class="st0" d="M69.5,185.4c4.3-9.1,3.5-12.1-5-20.7c3.7,0.2,7.4,0.3,11.2,0.6c0.8,0.1,1.7,0.3,2.3,0.8
	c9.2,6.8,19.2,5.4,29.8,4.6c30.9-2.1,59.1,5.7,82.3,27.3c3.3,3.1,6.2,7,8.4,11c2.7,4.9,1.1,7.3-4.7,6.7c-6.3-0.6-12.5-2-18.7-3
	c-17.8-3-33.9-10.3-49.5-19.1c-10-5.6-20.4-10.5-31-14.9c-3.1-1.3-7.5-0.6-10.9,0.4C78.9,180.6,74.3,183.2,69.5,185.4z"/>
<path class="st0" d="M154.4,136c2.3-10.2-1.3-16.4-9.6-20.2c0.1-0.4,0.1-0.9,0.2-1.3c2.9,0.1,6.1-0.5,8.5,0.6
	c5.3,2.3,10.4,5.2,15.2,8.4c3.1,2,5.9,2.8,9.7,2.3c21-2.6,41.9-6.7,63.1-4.4c9.3,1,18.5,3.8,27.7,6.1c2.8,0.7,5.8,2.2,7.8,4.2
	c2.4,2.3,3.8,5.4,5.7,8.2c-2.6,1.5-5.1,3.5-7.9,4.3c-28.3,8.3-56,6.1-82.9-6c-5.3-2.4-10.7-4.7-16.2-6.4c-2.8-0.9-6.2-0.9-9.1-0.2
	C162.8,132.4,159.2,134.2,154.4,136z"/>
<path class="st0" d="M415.5,107.7c6,1.4,8.8,5.9,10.7,10.3c3,6.9,8,9,15.1,9.6c17.9,1.5,35.7,4.2,52.5,11.4
	c10.9,4.6,20.8,10.7,27.8,20.4c2.2,3,2.8,7.2,4.1,10.8c-3.6,0.7-7.2,2.1-10.7,2c-25.2-0.7-47.5-8.8-66.4-25.9
	c-5.5-5-11.2-9.9-17.3-14.3c-2.5-1.8-6.1-2.3-9.2-2.8c-5.3-0.9-10.6-1.3-15.9-2.4C415.2,121.7,415.4,121.4,415.5,107.7z"/>
<path class="st0" d="M83.2,120.4c0.6-2.4,1.1-4,1.9-7.2c3.8,3.8,6.7,7,9.9,10c2.4,2.2,4.8,4.5,7.6,6.1c8.2,4.7,16.7,9,25,13.6
	c1.7,0.9,3.2,2.3,5,3.7c-4.2,4.5-9.2,6-14.5,6.6c-4.3,0.4-8.7,0.3-13,0.1c-8.5-0.4-17-1.1-25-1.7c0.8-0.6,2.5-1.9,4.9-3.7
	c-3.3-1.8-5.6-3-7.8-4.3c-15-8.7-27.1-20.5-36.6-34.9c-5.6-8.5-13.1-14.5-21.7-19.4C13.6,86.2,8.3,83,3.1,79.8
	C1.7,79,0.7,77.7,0,75.5c2.7,0.9,5.3,1.7,8,2.6c11.8,4.2,15.1,2.5,18.6-10.1c1.5,5.8,2.8,10.9,4.1,16c1.7,7.2,5.5,12.2,12.5,15.6
	C56.6,106,69.7,113.3,83.2,120.4z"/>
<path class="st0" d="M251.3,101.8c4.4-8,1.3-13.3-4.9-17.6c0.1-0.4,0.3-0.9,0.4-1.3c2.9,0.7,6.3,0.9,8.7,2.4
	c4.3,2.7,7.9,6.5,12.1,9.4c2.3,1.6,5,3.1,7.8,3.6c27.1,4.1,54.4,7.6,79.3,20.3c4.3,2.2,8.4,4.7,12.2,7.7c1.7,1.4,2.4,4,3.6,6.1
	c-2,0.9-4,2.4-6.1,2.8c-17,2.5-33.9,1.5-49.3-6.2c-13.6-6.9-26.5-15.2-39.3-23.5c-5.5-3.6-10.6-5.9-17.2-4.3
	C256.7,101.7,254.4,101.6,251.3,101.8z"/>
<path class="st0" d="M352.9,328.7c2-7.4,1-13.2-6.9-16.3c6.7-3.4,11.8-1.1,16.1,2.8c3.7,3.3,7.2,4,12.1,3.4
	c16.9-2,33.9-3.8,50.6,1.1c6.3,1.8,12.3,4.9,18.1,8.1c2,1.1,3.9,4.2,3.8,6.3c0,1.5-3.2,3.4-5.4,4.2c-18.7,7.3-36.8,5.7-54.3-4
	c-5.5-3.1-11.2-5.8-16.6-9.2c-3.4-2.1-6.5-2.2-9.8-0.3C358.3,326,355.9,327.2,352.9,328.7z"/>
<path class="st0" d="M656.6,320c3.3-5.4,2.1-9.8-2.9-14.1c6.3,0.3,10,3.5,12.4,7.5c3,4.9,7.3,7.2,12.3,9.3
	c16.5,7,31.5,16.3,40.9,32.1c3.1,5.2,4.8,11.2,6.7,17c0.5,1.4-0.8,3.4-1.3,5c-1.6-0.5-3.5-0.6-4.8-1.6c-13.3-9.9-25.3-21-35.1-34.5
	c-3.6-5-7.9-9.4-11.5-14.4c-3.3-4.5-7.5-6.3-12.9-6C659.4,320.4,658.2,320.1,656.6,320z"/>
<path class="st0" d="M5.5,3.3c5.1,4.4,6.7-0.1,9.7-3.3c0.2,4.1,0.7,8.3,0.6,12.4c-0.1,4.8,1.1,8.8,4.5,12.2
	c10.2,10,20.5,19.9,30.5,30.1c7.4,7.6,14.6,15.5,21.5,23.5c2.2,2.5,3.3,5.9,4.9,8.9c-0.4,0.5-0.8,0.9-1.2,1.4c-2.3-1-4.6-1.9-6.8-3
	c-26.6-14-44.8-35-54.4-63.6c-0.8-2.5-2.6-4.6-3.9-6.9c-2-3.6-4.1-7.2-6.1-10.8C5,4,5.3,3.6,5.5,3.3z"/>
<path class="st0" d="M703.2,411c1.2-1.3,3-3.1,4.8-4.9c-0.4-0.6-0.8-1.2-1.2-1.7c0.5,0.7,1.5,1.4,1.5,2.1c0,5.8,4.1,7.9,8.5,10.2
	c8.1,4.1,15.7,8.9,20.1,17.3c1.3,2.6,1.8,5.6,3,9.8c-10.2-3.1-17.4-7.4-22.7-14.6c-1.3-1.7-2.3-3.6-3.5-5.5
	C710.4,418.3,708.5,411.6,703.2,411z"/>
<path class="st0" d="M447.2,75.6c2.2-2.4,3.9-4.2,5.9-6.3c0.4,0.6,1.2,1.3,1.2,1.9c0,6.3,4.7,8.2,9.2,10.9c5.7,3.4,11,7.4,15.9,11.8
	c3.7,3.4,6.5,7.9,5.6,14.4c-8.9-2.5-16-6.7-21.4-13.8c-1.5-2-2.7-4.2-4-6.3C456.3,83.1,454.4,76.8,447.2,75.6z"/>
</svg>
