<?xml version="1.0" encoding="utf-8"?>
<!-- Generator: Adobe Illustrator 23.0.1, SVG Export Plug-In . SVG Version: 6.00 Build 0)  -->
<svg version="1.1" id="Layer_1" xmlns="http://www.w3.org/2000/svg" xmlns:xlink="http://www.w3.org/1999/xlink" x="0px" y="0px"
	 viewBox="0 0 2170.7 532.2" style="enable-background:new 0 0 2170.7 532.2;" xml:space="preserve">
<style type="text/css">
	.st0{fill:#FFFFFF;}
	.st1{clip-path:url(#SVGID_2_);fill:#FFFFFF;}
</style>
<g>
	<g>
	</g>
</g>
<g>
	<path class="st0" d="M329.7,530.3L7.2,419c-4.9-1.7-7.9-6.7-7.1-11.9L65.4,9C66.5,2,74-2,80.5,1l264.8,122.2
		c3.9,1.8,6.3,5.7,6.2,10L344,520.3C343.8,527.6,336.6,532.7,329.7,530.3z"/>
	<g>
		<defs>
			<path id="SVGID_1_" d="M803.8,423.9L401.2,531.5c-12.4,3.3-24.5-6-24.5-18.8V144.3c0-9,6.1-16.8,14.8-18.9l328.7-81.5
				c10.7-2.6,21.4,4.1,23.7,14.8L817.8,401C820,411.1,813.8,421.2,803.8,423.9z"/>
		</defs>
		<clipPath id="SVGID_2_">
			<use xlink:href="#SVGID_1_"  style="overflow:visible;"/>
		</clipPath>
		<path class="st1" d="M739.7,38.1l-363,90c0,0,0,0,0,0v409c0,0,0,0,0,0l445-119c0,0,0,0,0,0L739.7,38.1
			C739.7,38.1,739.7,38.1,739.7,38.1z M432.8,193.2c-1-4.7,3-8.8,7.7-7.8c2.4,0.5,4.3,2.4,4.9,4.8c1.1,4.7-3,8.9-7.8,7.8
			C435.3,197.5,433.4,195.5,432.8,193.2z M436.8,267.2c-1-4.7,3-8.8,7.7-7.8c2.4,0.5,4.3,2.4,4.9,4.8c1.1,4.7-3,8.9-7.8,7.8
			C439.3,271.5,437.4,269.5,436.8,267.2z M445.8,342.2c-1-4.7,3-8.8,7.7-7.8c2.4,0.5,4.3,2.4,4.9,4.8c1.1,4.7-3,8.9-7.8,7.8
			C448.3,346.5,446.4,344.5,445.8,342.2z M458.1,429.2c-3.6,0-6.5-3-6.5-6.6c0.1-3.4,3-6.3,6.4-6.3c3.6,0,6.5,2.9,6.5,6.5
			C464.6,426.3,461.7,429.2,458.1,429.2z M467.6,183.5l230-62.4c0,0,0,0,0,0l1,3.5c0,0,0,0,0,0l-230,62.4c0,0,0,0,0,0L467.6,183.5
			C467.6,183.5,467.6,183.5,467.6,183.5z M473.4,259.2l-0.1,0l-0.3-1.1l0.1,0l-0.4-1.6c0,0,0,0,0,0l230-62.4c0,0,0,0,0,0l1,3.5
			c0,0,0,0,0,0l-230,62.4L473.4,259.2z M480.6,333.5l230-62.4c0,0,0,0,0,0l1,3.5c0,0,0,0,0,0l-230,62.4c0,0,0,0,0,0L480.6,333.5
			C480.6,333.5,480.6,333.5,480.6,333.5z M491.3,417l-0.9-3.4c0,0,0,0,0,0L737.2,347c0,0,0,0,0,0l0.9,3.4c0,0,0,0,0,0L491.3,417
			C491.3,417,491.3,417,491.3,417z"/>
	</g>
</g>
<g>
	<path class="st0" d="M938.7,148.6c1.5-2.2,3.4-2.9,5.5-2c2.2,0.9,4.2,2.3,6.1,4.2c1.9,1.9,3.4,3.8,4.5,5.6c1.1,1.9,1.4,2.7,0.8,2.6
		l76.6,130.9c0.4-2.1,0.8-5.5,1.1-10.1c0.3-4.7,0.6-10.2,0.7-16.5c0.1-6.3,0.2-13.3,0.1-20.8c-0.1-7.5-0.2-15-0.4-22.5
		c-0.2-7.5-0.5-14.9-0.9-22.1c-0.4-7.2-0.9-13.7-1.5-19.5c-0.6-5.8-1.2-10.6-1.9-14.4c-0.7-3.8-1.5-6.2-2.5-7c0-2.2,0.4-4.3,1.3-6.4
		c0.8-2,2.5-3,5-3c2.4,0,4.3,1.4,5.8,4.2c1.5,2.8,2.7,5.9,3.5,9.4c0.8,3.5,1.4,6.9,1.8,10.2c0.3,3.3,0.5,5.5,0.5,6.5
		c0.1,2.8,0.2,7.2,0.3,13.3c0.1,6.1,0.1,13,0.2,20.8c0.1,7.8,0.1,16,0.2,24.5c0.1,8.6,0.1,16.7,0.2,24.5c0.1,7.8,0.1,14.8,0.1,20.9
		c0,6.1,0.1,10.6,0.2,13.4c0.1,3.9,0.7,7.3,1.6,10.2c0.9,2.9,1.4,6.3,1.4,10c0,3.1-1.1,5.4-3.4,6.9c-2.3,1.5-4.8,2.3-7.6,2.3
		c-1.5,0-2.9-0.2-4.1-0.6c-1.2-0.4-2.1-1.1-2.8-2.1c-0.7-1-1.1-2.3-1.1-3.9c-0.1-1.6,0.2-3.6,0.9-5.9c-2.5-2.9-5.7-7.8-9.6-14.7
		c-3.9-6.9-8.2-14.7-12.8-23.4c-4.7-8.7-9.5-17.8-14.6-27.4c-5.1-9.6-10-18.7-14.6-27.2c-4.7-8.6-9-16-13-22.4
		c-4-6.4-7.3-10.8-9.8-13.2c-0.7,9-0.9,19.5-0.6,31.4c0.3,11.9,0.8,24.1,1.5,36.5c0.7,12.5,1.4,24.6,2.2,36.4
		c0.8,11.8,1.1,22.3,1.1,31.3c0,2.9-0.8,4.8-2.5,5.5c-1.7,0.8-3.4,0.9-5.2,0.5c-1.8-0.4-3.3-1.1-4.6-2.2c-1.3-1-1.5-1.8-0.6-2.4
		L938.7,148.6z"/>
	<path class="st0" d="M1059.6,271.3c-0.1-17.5,1.7-33.5,5.4-47.9c3.8-14.4,8.7-27,14.8-37.7c6.1-10.7,13-19.4,20.6-26
		c7.6-6.6,15.1-10.8,22.6-12.6c7.5-1.8,14.6-1.1,21.3,2.1c6.7,3.2,12.1,9.3,16.3,18.2c3.8,7.9,6.3,17.2,7.7,27.7
		c1.4,10.5,1.6,21.4,0.7,32.6c-0.9,11.2-3,22.2-6.2,33.1c-3.2,10.9-7.6,20.7-13,29.5c-5.5,8.8-12.1,16.1-19.7,21.9
		c-7.7,5.8-16.4,9.2-26.3,10.1c-7.8,0.4-14.5-1.1-20-4.7c-5.6-3.5-10.1-8-13.7-13.4c-3.5-5.4-6.2-11.1-7.9-17.1
		C1060.4,281,1059.6,275.8,1059.6,271.3z M1103.8,170.3c-2.4,2-5,5.4-7.9,10.2c-2.9,4.9-5.8,10.7-8.6,17.4c-2.8,6.8-5.3,14.1-7.6,22
		c-2.3,7.9-4.1,15.9-5.4,24c-1.3,8.1-2,15.9-1.9,23.6c0.1,7.7,1.1,14.6,3.2,20.8c2.1,6.2,5.3,11.3,9.6,15.4
		c4.3,4.1,10.1,6.6,17.3,7.6c5.6,0.7,11.2-1.1,16.8-5.4c5.6-4.3,10.8-10.2,15.6-17.5c4.7-7.4,8.9-15.8,12.4-25.2
		c3.5-9.4,6.2-18.8,7.8-28.1c1.4-8.3,2.1-16.5,2.1-24.5c0-8-0.8-15.3-2.3-22c-1.5-6.7-3.8-12.5-6.7-17.3c-2.9-4.9-6.5-8.3-10.9-10.4
		c-4.3-2.1-9.3-2.5-14.9-1.1C1116.9,161.1,1110.6,164.6,1103.8,170.3z"/>
	<path class="st0" d="M1245.1,163.6c-5.4-0.7-10.9-0.8-16.3-0.3c-5.4,0.5-10.8,1.1-16.2,1.8c-5.4,0.7-10.8,1.4-16.2,2
		c-5.4,0.6-10.9,0.7-16.3,0.3c-1.5-0.1-3.1-0.5-4.7-1c-1.6-0.6-2.3-2-2-4.4c0.1-1.5,0.9-3.1,2.3-4.6c1.4-1.5,2.8-2.2,4.4-2.1
		l62.8-3.8c0.1-0.7,0.4-1.7,0.8-3c0.4-1.3,1-2.6,1.7-3.9c0.7-1.3,1.5-2.3,2.5-3.2c1-0.9,2.1-1.3,3.3-1.1c1.8,0.1,3.2,0.7,4.3,1.8
		c1,1,1.9,2.2,2.6,3.3c0.7,1.2,1.3,2.3,1.9,3.2c0.6,1,1.3,1.5,2.1,1.7c22.4,0,45.4-0.4,69.1-1.3c0.4,0,1.5,0,3.3,0.1
		c1.8,0.1,3.1,0.2,3.8,0.3c0.8,2.4,0,4.2-2.6,5.5c-2.6,1.3-6.3,2.3-11.1,3c-4.8,0.7-10.3,1.2-16.4,1.5c-6.1,0.3-12.2,0.5-18.3,0.6
		c-6.1,0.1-11.8,0.3-17.1,0.6c-5.4,0.3-9.6,0.7-12.6,1.3c-1.1,7.2-1.7,15-1.9,23.4c-0.1,8.3-0.1,17,0.1,25.9
		c0.2,8.9,0.6,18,1.1,27.1c0.6,9.2,1.1,18.2,1.6,27.1c0.5,8.9,0.8,17.5,0.9,25.9c0.1,8.3-0.1,16.1-0.6,23.4c0.8,4.5,0.4,7-1.1,7.6
		c-1.6,0.6-4.6,0.6-9.1-0.1c-1.1-5.7-2-12.6-2.5-20.8c-0.6-8.1-1-17-1.3-26.5c-0.3-9.5-0.4-19.4-0.4-29.6c0-10.2-0.1-20.3-0.2-30.2
		c-0.1-9.9-0.3-19.2-0.5-28.1C1246.3,178.2,1245.8,170.4,1245.1,163.6z"/>
	<path class="st0" d="M1351.6,319.5c0-13.4,0.2-27,0.7-40.9c0.5-13.9,0.7-27.9,0.6-42.1c-0.1-14.1-0.7-28.1-1.8-42.1
		c-1.1-13.9-3.2-27.6-6.3-40.9c0-0.7,0.3-1.6,0.8-2.6c0.6-1,1.3-2,2.1-2.8s1.8-1.5,2.8-2c1-0.5,2.1-0.5,3.2-0.1
		c1.8,0.7,3.3,2.1,4.5,4.1c1.2,2,2.1,4.2,2.7,6.6c0.6,2.4,1,4.6,1.3,6.8c0.2,2.2,0.3,3.7,0.3,4.7l80.4-20c1.3,0.3,2.3,1,3,2.2
		c0.8,1.2,1.1,2.5,1,4c-0.1,1.5-0.6,2.9-1.5,4.3c-0.9,1.4-2.3,2.4-4.1,2.9l-79.1,21.5c0,9,0.2,18,0.7,26.9c0.5,8.9,1.1,18,1.8,27.1
		l58-20.2c1.7-1.7,3.1-2.8,4.3-3.3c1.2-0.6,2.4-0.8,3.8-0.6c1.3,0.1,2.6,1.2,3.9,3.1c0,2.8-1.7,5.3-5,7.6c-3.3,2.3-7.5,4.4-12.4,6.4
		c-4.9,2-10.3,3.8-16.1,5.5c-5.8,1.7-11.1,3.5-16.1,5.3c-4.9,1.8-9.1,3.7-12.4,5.5c-3.3,1.9-5,3.9-5,5.9l-1.5,54.9
		c2.1,1.3,5.1,1.6,9.1,1.1c4-0.5,8.4-1.4,13.3-2.8c4.9-1.4,10-3.1,15.4-5.1c5.4-2,10.6-3.9,15.7-5.7c5-1.8,9.6-3.4,13.9-4.8
		c4.2-1.4,7.7-2.2,10.3-2.3c1.3,0.1,2.4,0.6,3.3,1.4c1,0.8,1.7,1.6,2.1,2.6c0.4,1,0.4,2,0.1,3c-0.3,1-1.3,1.9-2.8,2.6
		c-5.4,2.4-12,5-19.6,7.9c-7.7,2.9-15.6,5.7-23.7,8.5s-16,5.1-23.7,7.1c-7.7,2-14.1,3.2-19.4,3.7c-2-0.3-3.5-0.7-4.7-1.4
		C1354.5,322.3,1353.1,321.2,1351.6,319.5z"/>
	<path class="st0" d="M1633.8,163.6c-5.4-0.7-10.9-0.8-16.3-0.3c-5.4,0.5-10.8,1.1-16.2,1.8c-5.4,0.7-10.8,1.4-16.2,2
		s-10.9,0.7-16.3,0.3c-1.5-0.1-3.1-0.5-4.7-1c-1.6-0.6-2.3-2-2-4.4c0.1-1.5,0.9-3.1,2.3-4.6c1.4-1.5,2.8-2.2,4.4-2.1l62.8-3.8
		c0.1-0.7,0.4-1.7,0.8-3c0.4-1.3,1-2.6,1.7-3.9c0.7-1.3,1.5-2.3,2.5-3.2c1-0.9,2.1-1.3,3.3-1.1c1.8,0.1,3.2,0.7,4.3,1.8
		c1,1,1.9,2.2,2.6,3.3c0.7,1.2,1.3,2.3,1.9,3.2c0.6,1,1.3,1.5,2.1,1.7c22.4,0,45.4-0.4,69.1-1.3c0.4,0,1.5,0,3.3,0.1
		c1.8,0.1,3.1,0.2,3.8,0.3c0.8,2.4,0,4.2-2.6,5.5c-2.6,1.3-6.3,2.3-11.1,3c-4.8,0.7-10.3,1.2-16.4,1.5c-6.1,0.3-12.2,0.5-18.3,0.6
		c-6.1,0.1-11.8,0.3-17.1,0.6c-5.4,0.3-9.6,0.7-12.6,1.3c-1.1,7.2-1.7,15-1.9,23.4c-0.1,8.3-0.1,17,0.1,25.9
		c0.2,8.9,0.6,18,1.1,27.1c0.6,9.2,1.1,18.2,1.6,27.1c0.5,8.9,0.8,17.5,0.9,25.9c0.1,8.3-0.1,16.1-0.6,23.4c0.8,4.5,0.4,7-1.1,7.6
		c-1.6,0.6-4.6,0.6-9.1-0.1c-1.1-5.7-2-12.6-2.5-20.8c-0.6-8.1-1-17-1.3-26.5c-0.3-9.5-0.4-19.4-0.4-29.6c0-10.2-0.1-20.3-0.2-30.2
		c-0.1-9.9-0.3-19.2-0.5-28.1C1634.9,178.2,1634.5,170.4,1633.8,163.6z"/>
	<path class="st0" d="M1703.3,324.1c1-3.2,2.5-8.5,4.7-15.9c2.2-7.4,5-17.9,8.5-31.6c3.5-13.7,7.8-31.1,12.8-52.3
		c5.1-21.2,11-47.2,17.8-78.1c0.8-1.4,2-2.3,3.5-2.8c1.5-0.5,3.1-0.6,4.6-0.4c1.5,0.2,2.8,0.7,3.9,1.5c1,0.8,1.5,1.6,1.4,2.6
		l41.1,100l21.3-6.5c1.8,0,3.3,0.5,4.6,1.5c1.3,1,1.9,2.2,2.1,3.5c0.1,1.4-0.3,2.9-1.5,4.5c-1.1,1.6-3.1,2.9-5.8,3.9
		c-1.1,0.4-2.6,0.9-4.4,1.4c-1.8,0.5-3.6,0.9-5.4,1.4c-1.8,0.4-3.3,0.8-4.6,1.3s-1.9,0.8-1.9,1.3l23.2,61.8
		c-0.3,0.7-0.6,1.6-0.8,2.6c-0.3,1-0.8,1.9-1.7,2.5s-2.1,0.8-3.8,0.6s-4-1.2-7.1-3l-24-61.4c-2.9,0.8-6.5,1.6-10.9,2.4
		c-4.3,0.8-8.8,1.5-13.6,2.3c-4.7,0.8-9.5,1.7-14.3,2.7s-9.2,2.3-13.3,3.9c-4,1.5-7.4,3.4-10.2,5.5c-2.8,2.2-4.5,4.8-5,7.8
		c-0.3,2-0.8,5.2-1.6,9.6c-0.8,4.5-1.5,8.9-2.2,13.4c-0.8,5.3-1.8,11-2.9,17.1c-2.5,2.5-4.8,3.3-6.8,2.5
		C1709.1,328.7,1706.5,326.9,1703.3,324.1z M1755.7,169.2l-22.1,92.9c2.4-0.8,5.6-1.7,9.8-2.7c4.2-1,8.7-2,13.6-3.1
		c4.9-1.1,9.8-2.2,14.7-3.3c4.9-1.1,9.4-2.3,13.5-3.5L1755.7,169.2z"/>
	<path class="st0" d="M1832.9,155.7c0.1-1.7,0.6-3.2,1.3-4.6c0.7-1.4,1.6-2.5,2.6-3.2c1-0.8,2.1-1.1,3.2-1c1.1,0.1,2.2,0.7,3.3,2
		c0.6,0,1,0.5,1.4,1.6c0.3,1,0.6,2.9,0.7,5.6c0.1,2.7,0.2,6.4,0.3,11.2c0.1,4.7,0.1,10.8,0.1,18.2c0,7.4,0,16.2,0.1,26.6
		c0.1,10.4,0.2,22.5,0.3,36.4c0.6-1,2.1-3.4,4.5-7.4c2.4-4,5.5-8.8,9.3-14.6c3.8-5.8,8-12,12.6-18.8c4.7-6.7,9.5-13.5,14.4-20.1
		c4.9-6.7,9.9-12.9,14.8-18.8c4.9-5.8,9.5-10.6,13.7-14.3c4.2-3.7,7.9-6.1,11.2-7.1c3.3-1,5.7-0.1,7.2,2.8
		c-12.1,15.6-22.8,29.2-32.1,40.7c-9.3,11.6-17.4,22-24.1,31.2c-6.8,9.3-12.4,17.8-16.9,25.6c-4.5,7.8-8.1,15.7-10.8,23.8l87.5,42.2
		c-0.3,2.4-1.1,4.6-2.4,6.7c-1.3,2.1-3.5,3-6.6,2.7l-81.2-37.8c0.4,2.2,0.6,4.9,0.5,8c-0.1,3.1-0.2,6.4-0.4,9.7s-0.5,6.5-0.9,9.6
		c-0.4,3.1-0.7,5.6-0.8,7.5c0.3,2.9-0.7,4.9-3,5.8c-2.3,1-4.6,0.5-6.8-1.5L1832.9,155.7z"/>
	<path class="st0" d="M1948.2,319.5c0-13.4,0.2-27,0.7-40.9c0.5-13.9,0.7-27.9,0.6-42.1c-0.1-14.1-0.7-28.1-1.8-42.1
		c-1.1-13.9-3.2-27.6-6.3-40.9c0-0.7,0.3-1.6,0.8-2.6c0.6-1,1.3-2,2.1-2.8s1.8-1.5,2.8-2c1-0.5,2.1-0.5,3.2-0.1
		c1.8,0.7,3.3,2.1,4.5,4.1c1.2,2,2.1,4.2,2.7,6.6c0.6,2.4,1,4.6,1.3,6.8c0.2,2.2,0.3,3.7,0.3,4.7l80.4-20c1.3,0.3,2.3,1,3,2.2
		c0.8,1.2,1.1,2.5,1,4c-0.1,1.5-0.6,2.9-1.5,4.3c-0.9,1.4-2.3,2.4-4.1,2.9L1959,183c0,9,0.2,18,0.7,26.9c0.5,8.9,1.1,18,1.8,27.1
		l58-20.2c1.7-1.7,3.1-2.8,4.3-3.3c1.2-0.6,2.4-0.8,3.8-0.6c1.3,0.1,2.6,1.2,3.9,3.1c0,2.8-1.7,5.3-5,7.6c-3.3,2.3-7.5,4.4-12.4,6.4
		c-4.9,2-10.3,3.8-16.1,5.5c-5.8,1.7-11.1,3.5-16.1,5.3c-4.9,1.8-9.1,3.7-12.4,5.5c-3.3,1.9-5,3.9-5,5.9l-1.5,54.9
		c2.1,1.3,5.1,1.6,9.1,1.1c4-0.5,8.4-1.4,13.3-2.8c4.9-1.4,10-3.1,15.4-5.1c5.4-2,10.6-3.9,15.7-5.7c5-1.8,9.6-3.4,13.9-4.8
		c4.2-1.4,7.7-2.2,10.3-2.3c1.3,0.1,2.4,0.6,3.3,1.4c1,0.8,1.7,1.6,2.1,2.6c0.4,1,0.4,2,0.1,3c-0.3,1-1.3,1.9-2.8,2.6
		c-5.4,2.4-12,5-19.6,7.9c-7.7,2.9-15.6,5.7-23.7,8.5c-8.1,2.7-16,5.1-23.7,7.1c-7.7,2-14.1,3.2-19.4,3.7c-2-0.3-3.5-0.7-4.7-1.4
		C1951,322.3,1949.7,321.2,1948.2,319.5z"/>
	<path class="st0" d="M2057.5,149.4c0.4-1,1.3-1.7,2.6-2.3c1.3-0.6,2.7-0.8,4.2-0.8s2.7,0.4,3.9,1.1c1.1,0.8,1.8,2,2.1,3.7l1.3,11.5
		c2.6-0.6,5.8-1.7,9.4-3.4c3.6-1.7,7.8-3.4,12.6-5.1s10.2-3.1,16.2-4.2c6-1.1,12.7-1.3,20-0.4c11.4,2.2,19.7,4.9,24.8,7.9
		c5.1,3.1,7.9,6.4,8.2,10.1c0.3,3.7-1.2,7.7-4.6,11.9c-3.4,4.2-8,8.5-13.7,12.8c-5.7,4.3-12.1,8.7-19.2,13.2
		c-7.1,4.5-14,8.7-20.8,12.8c-6.8,4.1-13,8-18.8,11.7c-5.8,3.7-10.1,7.1-13,10.1l97.9,58.9c0,2.2-0.9,4.4-2.7,6.4
		c-1.8,2-3.9,2.9-6.3,2.6l-92.1-53v69.3c-1.7,1.4-3.1,2.3-4.3,2.7c-1.2,0.4-2.1,0.6-2.8,0.4c-0.7-0.1-1.3-0.5-1.9-1.1
		c-0.6-0.6-1-1.3-1.5-2L2057.5,149.4z M2071.5,178.2c-0.3,2.8-0.5,6.1-0.6,10c-0.1,3.9-0.2,8-0.2,12.4c0,4.4,0,8.7,0,12.9
		c0,4.2,0,8,0,11.4c0.7-0.7,2.9-2,6.6-3.9c3.7-1.9,8.2-4.2,13.5-7c5.3-2.8,11-5.9,17-9.3c6.1-3.4,11.8-6.9,17.2-10.5
		c5.4-3.6,10.2-7.2,14.3-10.8c4.1-3.5,6.7-6.9,7.9-9.9c1.2-3.1,0.6-5.8-1.9-8.2c-2.4-2.4-7.4-4.3-14.9-5.7
		c-4.2-0.3-9.1-0.1-14.7,0.4c-5.6,0.6-11.3,1.6-16.9,3c-5.6,1.5-10.9,3.4-15.8,5.9C2078.1,171.5,2074.3,174.6,2071.5,178.2z"/>
</g>
</svg>
