<svg xmlns="http://www.w3.org/2000/svg" viewBox="0 0 164.94 19.06"><title>name_1</title><g id="Layer_2" data-name="Layer 2"><g id="v1"><path d="M4.23,13.16,2.38,18.77H0L6.05,1H8.83l6.08,17.82H12.45l-1.9-5.61Zm5.84-1.8L8.33,6.24C7.93,5.07,7.66,4,7.4,3H7.35c-.27,1-.56,2.14-.9,3.22L4.7,11.36Z"/><path d="M28.17,0V15.46c0,1.14,0,2.43.11,3.31H26.19l-.11-2.22h0a4.74,4.74,0,0,1-4.36,2.51c-3.09,0-5.47-2.62-5.47-6.51,0-4.25,2.62-6.87,5.73-6.87a4.28,4.28,0,0,1,3.86,2h.06V0ZM25.85,11.18a4.09,4.09,0,0,0-.11-1,3.41,3.41,0,0,0-3.36-2.69c-2.4,0-3.83,2.11-3.83,4.94,0,2.59,1.27,4.73,3.78,4.73a3.49,3.49,0,0,0,3.41-2.78,3.93,3.93,0,0,0,.11-1Z"/><path d="M32,10c0-1.5,0-2.8-.11-4h2L34,8.48h.1a3.84,3.84,0,0,1,3.54-2.8,2.59,2.59,0,0,1,.66.08V8a3.05,3.05,0,0,0-.79-.08,3.26,3.26,0,0,0-3.12,3,7,7,0,0,0-.1,1.09v6.82H32Z"/><path d="M43.36,2.38a1.44,1.44,0,0,1-2.88,0A1.42,1.42,0,0,1,41.94.92,1.38,1.38,0,0,1,43.36,2.38ZM40.77,18.77V6H43.1v12.8Z"/><path d="M54,18.77l-.19-1.62h-.07a4.77,4.77,0,0,1-3.92,1.91A3.65,3.65,0,0,1,46,15.38c0-3.09,2.75-4.78,7.69-4.75v-.27a2.63,2.63,0,0,0-2.9-3,6.36,6.36,0,0,0-3.33.95l-.53-1.53a7.89,7.89,0,0,1,4.2-1.14c3.91,0,4.86,2.67,4.86,5.24V15.7a19.07,19.07,0,0,0,.21,3.07Zm-.34-6.53c-2.54-.06-5.42.39-5.42,2.88a2.06,2.06,0,0,0,2.19,2.22,3.18,3.18,0,0,0,3.09-2.14,2.42,2.42,0,0,0,.14-.74Z"/><path d="M59.69,9.44c0-1.33,0-2.41-.1-3.47h2.06l.13,2.12h0a4.71,4.71,0,0,1,4.23-2.41c1.77,0,4.52,1.06,4.52,5.45v7.64H68.26V11.39c0-2.06-.77-3.78-3-3.78A3.3,3.3,0,0,0,62.18,10,3.23,3.23,0,0,0,62,11.07v7.7H59.69Z"/><path d="M82.34,1V18.77H80V1Z"/><path d="M93.36,18.77l-.19-1.62h-.08a4.74,4.74,0,0,1-3.91,1.91,3.65,3.65,0,0,1-3.91-3.68c0-3.09,2.75-4.78,7.69-4.75v-.27a2.63,2.63,0,0,0-2.9-3,6.36,6.36,0,0,0-3.33.95L86.2,6.82a7.89,7.89,0,0,1,4.2-1.14c3.91,0,4.86,2.67,4.86,5.24V15.7a18,18,0,0,0,.21,3.07ZM93,12.24c-2.54-.06-5.42.39-5.42,2.88a2.06,2.06,0,0,0,2.19,2.22,3.18,3.18,0,0,0,3.09-2.14,2.42,2.42,0,0,0,.14-.74Z"/><path d="M108.13,18.29a8.5,8.5,0,0,1-3.67.74c-3.86,0-6.37-2.62-6.37-6.53A6.49,6.49,0,0,1,105,5.71a7.71,7.71,0,0,1,3.22.66l-.52,1.8a5.39,5.39,0,0,0-2.7-.61c-2.93,0-4.52,2.17-4.52,4.84,0,3,1.9,4.78,4.44,4.78a6.61,6.61,0,0,0,2.85-.63Z"/><path d="M121.56,15.28c0,1.32,0,2.48.1,3.49H119.6l-.13-2.09h-.06a4.79,4.79,0,0,1-4.22,2.38c-2,0-4.42-1.11-4.42-5.61V6h2.33v7.09c0,2.43.74,4.07,2.85,4.07a3.27,3.27,0,0,0,3.28-3.31V6h2.33Z"/><path d="M137,12.26c0,4.73-3.28,6.8-6.37,6.8-3.47,0-6.13-2.54-6.13-6.59,0-4.28,2.8-6.79,6.34-6.79S137,8.35,137,12.26Zm-10.15.14c0,2.8,1.61,4.91,3.88,4.91s3.89-2.09,3.89-5c0-2.16-1.09-4.91-3.83-4.91S126.84,10,126.84,12.4Z"/><path d="M139.92,9.44c0-1.33,0-2.41-.11-3.47h2.06L142,8.09h.05a4.69,4.69,0,0,1,4.23-2.41c1.77,0,4.52,1.06,4.52,5.45v7.64h-2.33V11.39c0-2.06-.77-3.78-3-3.78A3.32,3.32,0,0,0,142.4,10a3.51,3.51,0,0,0-.16,1.08v7.7h-2.32Z"/><path d="M155.88,12.79c.05,3.15,2.06,4.44,4.38,4.44a8.47,8.47,0,0,0,3.55-.66l.39,1.67A10.36,10.36,0,0,1,160,19c-3.94,0-6.29-2.59-6.29-6.45s2.27-6.9,6-6.9c4.17,0,5.28,3.68,5.28,6a8.14,8.14,0,0,1-.08,1.08Zm6.82-1.66c0-1.48-.61-3.78-3.23-3.78-2.35,0-3.38,2.16-3.57,3.78Z"/></g></g></svg>