<svg xmlns="http://www.w3.org/2000/svg" viewBox="0 0 19.06 164.94"><title>nameText_1</title><g id="Layer_2" data-name="Layer 2"><g id="v1"><path d="M13.16,160.71l5.61,1.85v2.38L1,158.89v-2.77L18.77,150v2.45l-5.61,1.91Zm-1.8-5.84-5.12,1.75c-1.17.39-2.22.66-3.25.92v.06c1,.26,2.14.55,3.22.89l5.15,1.75Z"/><path d="M0,136.77H15.46c1.14,0,2.43,0,3.31-.1v2.08l-2.22.11v0a4.76,4.76,0,0,1,2.51,4.36c0,3.1-2.62,5.47-6.51,5.47-4.25,0-6.87-2.61-6.87-5.73a4.28,4.28,0,0,1,2-3.86v-.05H0Zm11.18,2.33a4.08,4.08,0,0,0-1,.1,3.43,3.43,0,0,0-2.69,3.36c0,2.4,2.11,3.83,4.94,3.83,2.59,0,4.73-1.27,4.73-3.78a3.5,3.5,0,0,0-2.78-3.41,3.94,3.94,0,0,0-1-.1Z"/><path d="M10,132.92c-1.5,0-2.8,0-4,.1v-2l2.51-.08v-.11a3.84,3.84,0,0,1-2.8-3.54,2.65,2.65,0,0,1,.08-.66H8a3.15,3.15,0,0,0-.08.79,3.26,3.26,0,0,0,3,3.12,6.92,6.92,0,0,0,1.09.11h6.82v2.3Z"/><path d="M2.38,121.58a1.44,1.44,0,0,1,0,2.88A1.42,1.42,0,0,1,.92,123,1.38,1.38,0,0,1,2.38,121.58Zm16.39,2.59H6v-2.33h12.8Z"/><path d="M18.77,110.9l-1.62.19v.08a4.75,4.75,0,0,1,1.91,3.91A3.65,3.65,0,0,1,15.38,119c-3.09,0-4.78-2.75-4.75-7.69h-.27a2.64,2.64,0,0,0-3,2.91,6.39,6.39,0,0,0,.95,3.33l-1.53.53a7.93,7.93,0,0,1-1.14-4.21c0-3.91,2.67-4.86,5.24-4.86H15.7a18,18,0,0,0,3.07-.21Zm-6.53.35c-.06,2.53.39,5.42,2.88,5.42a2.07,2.07,0,0,0,2.22-2.2,3.19,3.19,0,0,0-2.14-3.09,2.4,2.4,0,0,0-.74-.13Z"/><path d="M9.44,105.25c-1.33,0-2.41,0-3.47.11v-2.07l2.12-.13v0a4.69,4.69,0,0,1-2.41-4.23c0-1.77,1.06-4.52,5.45-4.52h7.64v2.33H11.39c-2.06,0-3.78.76-3.78,3A3.32,3.32,0,0,0,10,102.77a3.52,3.52,0,0,0,1.08.15h7.7v2.33Z"/><path d="M1,82.6H18.77v2.3H1Z"/><path d="M18.77,71.58l-1.62.19v.08a4.75,4.75,0,0,1,1.91,3.91,3.65,3.65,0,0,1-3.68,3.91c-3.09,0-4.78-2.75-4.75-7.69h-.27a2.64,2.64,0,0,0-3,2.91,6.39,6.39,0,0,0,.95,3.33l-1.53.53a7.93,7.93,0,0,1-1.14-4.21c0-3.91,2.67-4.86,5.24-4.86H15.7a18,18,0,0,0,3.07-.21Zm-6.53.35c-.06,2.54.39,5.42,2.88,5.42a2.07,2.07,0,0,0,2.22-2.2,3.19,3.19,0,0,0-2.14-3.09,2.4,2.4,0,0,0-.74-.13Z"/><path d="M18.29,56.81A8.56,8.56,0,0,1,19,60.49c0,3.85-2.62,6.37-6.53,6.37A6.5,6.5,0,0,1,5.71,60a7.71,7.71,0,0,1,.66-3.22l1.8.53A5.34,5.34,0,0,0,7.56,60c0,2.94,2.17,4.52,4.84,4.52,3,0,4.78-1.9,4.78-4.44a6.61,6.61,0,0,0-.63-2.85Z"/><path d="M15.28,43.39c1.32,0,2.48,0,3.49-.11v2.06l-2.09.14v.05a4.81,4.81,0,0,1,2.38,4.23c0,2-1.11,4.41-5.61,4.41H6V51.85h7.09c2.43,0,4.07-.74,4.07-2.86a3.27,3.27,0,0,0-3.31-3.28H6V43.39Z"/><path d="M12.26,28c4.73,0,6.8,3.27,6.8,6.37,0,3.46-2.54,6.13-6.59,6.13-4.28,0-6.79-2.8-6.79-6.34S8.35,28,12.26,28Zm.14,10.15c2.8,0,4.91-1.62,4.91-3.89s-2.09-3.88-5-3.88c-2.16,0-4.91,1.08-4.91,3.83S10,38.11,12.4,38.11Z"/><path d="M9.44,25c-1.33,0-2.41,0-3.47.1V23.07l2.12-.13v-.05a4.71,4.71,0,0,1-2.41-4.23c0-1.77,1.06-4.52,5.45-4.52h7.64v2.32H11.39c-2.06,0-3.78.77-3.78,3A3.3,3.3,0,0,0,10,22.54a3.23,3.23,0,0,0,1.08.16h7.7V25Z"/><path d="M12.79,9.07C15.94,9,17.23,7,17.23,4.68a8.38,8.38,0,0,0-.66-3.54l1.67-.4A10.38,10.38,0,0,1,19,5c0,3.93-2.59,6.29-6.45,6.29s-6.9-2.28-6.9-6c0-4.18,3.68-5.29,6-5.29a8.14,8.14,0,0,1,1.08.08ZM11.13,2.25c-1.48,0-3.78.6-3.78,3.22,0,2.35,2.16,3.38,3.78,3.57Z"/></g></g></svg>