<svg xmlns="http://www.w3.org/2000/svg" viewBox="0 0 139 23.83"><title>portfolio</title><g id="Layer_2" data-name="Layer 2"><g id="v2"><path d="M0,1.79a32.71,32.71,0,0,1,5.44-.42c2.8,0,4.85.65,6.15,1.82a5.92,5.92,0,0,1,1.92,4.59,6.49,6.49,0,0,1-1.69,4.69,9.12,9.12,0,0,1-6.71,2.41,9.87,9.87,0,0,1-2.28-.2v8.79H0ZM2.83,12.37a9.65,9.65,0,0,0,2.35.23c3.41,0,5.5-1.66,5.5-4.69s-2-4.3-5.18-4.3a11.86,11.86,0,0,0-2.67.23Z"/><path d="M33.92,15.46c0,5.83-4,8.37-7.85,8.37-4.26,0-7.55-3.13-7.55-8.11,0-5.27,3.45-8.36,7.81-8.36C30.85,7.36,33.92,10.64,33.92,15.46Zm-12.5.17c0,3.45,2,6,4.78,6S31,19.11,31,15.56c0-2.67-1.33-6.06-4.72-6.06S21.42,12.63,21.42,15.63Z"/><path d="M40.78,12.63c0-1.85,0-3.45-.13-4.91h2.5l.1,3.09h.13a4.72,4.72,0,0,1,4.36-3.45,3.37,3.37,0,0,1,.82.09v2.71a4,4,0,0,0-1-.1c-2,0-3.45,1.53-3.84,3.68a8.56,8.56,0,0,0-.13,1.33v8.4H40.78Z"/><path d="M58.91,3.19V7.72H63V9.9h-4.1v8.49c0,2,.55,3.06,2.14,3.06a6.72,6.72,0,0,0,1.66-.19l.13,2.15a7.15,7.15,0,0,1-2.53.39,4,4,0,0,1-3.1-1.21c-.81-.84-1.1-2.24-1.1-4.1V9.9H53.67V7.72h2.44V3.94Z"/><path d="M69.78,23.47V9.9H67.56V7.72h2.22V7c0-2.22.48-4.24,1.82-5.5A5.43,5.43,0,0,1,75.44,0a6.56,6.56,0,0,1,2.44.46l-.39,2.21a4.19,4.19,0,0,0-1.82-.36c-2.44,0-3.06,2.15-3.06,4.56v.85h3.81V9.9H72.61V23.47Z"/><path d="M96.07,15.46c0,5.83-4,8.37-7.84,8.37-4.26,0-7.55-3.13-7.55-8.11,0-5.27,3.45-8.36,7.81-8.36C93,7.36,96.07,10.64,96.07,15.46Zm-12.5.17c0,3.45,2,6,4.79,6s4.78-2.57,4.78-6.12c0-2.67-1.33-6.06-4.72-6.06S83.57,12.63,83.57,15.63Z"/><path d="M102.94.36h2.86V23.47h-2.86Z"/><path d="M117.06,3.29a1.78,1.78,0,0,1-3.55,0,1.75,1.75,0,0,1,1.8-1.79A1.7,1.7,0,0,1,117.06,3.29Zm-3.19,20.18V7.72h2.87V23.47Z"/><path d="M139,15.46c0,5.83-4,8.37-7.84,8.37-4.27,0-7.56-3.13-7.56-8.11,0-5.27,3.45-8.36,7.82-8.36C135.94,7.36,139,10.64,139,15.46Zm-12.5.17c0,3.45,2,6,4.78,6s4.79-2.57,4.79-6.12c0-2.67-1.33-6.06-4.72-6.06S126.5,12.63,126.5,15.63Z"/></g></g></svg>