<svg xmlns="http://www.w3.org/2000/svg" width="171.11" height="27.5" viewBox="0 0 171.11 27.5">
  <defs>
    <style>
      .cls-1 {
        fill: red;
      }
    </style>
  </defs>
  <title>portfolio_3</title>
  <g id="Layer_2" data-name="Layer 2">
    <g id="v1">
      <g>
        <path class="cls-1" d="M0,2.07a37.07,37.07,0,0,1,6.27-.49c3.23,0,5.6.75,7.1,2.1A6.8,6.8,0,0,1,15.59,9a7.49,7.49,0,0,1-1.95,5.41c-1.73,1.84-4.55,2.78-7.74,2.78a11.1,11.1,0,0,1-2.63-.23V27.08H0Zm3.27,12.2a10.75,10.75,0,0,0,2.7.27c4,0,6.35-1.92,6.35-5.41s-2.36-5-6-5a13.73,13.73,0,0,0-3.08.26Z"/>
        <path class="cls-1" d="M39.14,17.84c0,6.73-4.66,9.66-9.06,9.66-4.92,0-8.71-3.61-8.71-9.36,0-6.08,4-9.65,9-9.65C35.61,8.49,39.14,12.28,39.14,17.84ZM24.71,18c0,4,2.29,7,5.52,7s5.53-3,5.53-7.06c0-3.08-1.54-7-5.45-7S24.71,14.58,24.71,18Z"/>
        <path class="cls-1" d="M47.06,14.58c0-2.15,0-4-.15-5.68H49.8l.11,3.57h.15a5.46,5.46,0,0,1,5-4A3.91,3.91,0,0,1,56,8.6v3.12a5.34,5.34,0,0,0-1.13-.11c-2.33,0-4,1.76-4.43,4.24a8.83,8.83,0,0,0-.15,1.54v9.69H47.06Z"/>
        <path class="cls-1" d="M68,3.68V8.9h4.73v2.52H68v9.8c0,2.26.64,3.54,2.48,3.54a7.38,7.38,0,0,0,1.91-.23L72.52,27a8.15,8.15,0,0,1-2.93.45A4.59,4.59,0,0,1,66,26.07c-.94-1-1.27-2.59-1.27-4.73V11.42H61.93V8.9h2.82V4.55Z"/>
        <path class="cls-1" d="M80.52,27.08V11.42H78V8.9h2.55V8c0-2.56.56-4.88,2.1-6.35A6.35,6.35,0,0,1,87.06,0a7.45,7.45,0,0,1,2.81.53l-.45,2.55a4.86,4.86,0,0,0-2.1-.41c-2.82,0-3.53,2.48-3.53,5.26v1h4.39v2.52H83.79V27.08Z"/>
        <path class="cls-1" d="M110.87,17.84c0,6.73-4.66,9.66-9.05,9.66-4.92,0-8.72-3.61-8.72-9.36,0-6.08,4-9.65,9-9.65C107.34,8.49,110.87,12.28,110.87,17.84ZM96.45,18c0,4,2.29,7,5.52,7s5.52-3,5.52-7.06c0-3.08-1.54-7-5.45-7S96.45,14.58,96.45,18Z"/>
        <path class="cls-1" d="M118.79.41h3.31V27.08h-3.31Z"/>
        <path class="cls-1" d="M135.09,3.79a2,2,0,0,1-4.09,0,2,2,0,0,1,2.06-2.06A2,2,0,0,1,135.09,3.79Zm-3.68,23.29V8.9h3.3V27.08Z"/>
        <path class="cls-1" d="M160.41,17.84c0,6.73-4.66,9.66-9.06,9.66-4.92,0-8.71-3.61-8.71-9.36,0-6.08,4-9.65,9-9.65C156.87,8.49,160.41,12.28,160.41,17.84ZM146,18c0,4,2.29,7,5.52,7S157,22.05,157,18c0-3.08-1.55-7-5.45-7S146,14.58,146,18Z"/>
        <path class="cls-1" d="M166.64,25.13a2.22,2.22,0,0,1,2.25-2.37,2.2,2.2,0,0,1,2.22,2.37,2.24,2.24,0,1,1-4.47,0Z"/>
      </g>
    </g>
  </g>
</svg>
